solid cylinder
facet normal 0.049067415 0.99879545 0
 outer loop
  vertex 0 0.009000001 0
  vertex 0 0.009000001 0.060000002
  vertex 0.00088215433 0.008956663 0.060000002
 endloop
endfacet
facet normal 0.049067415 0.99879545 -0
 outer loop
  vertex 0 0.009000001 0
  vertex 0.00088215433 0.008956663 0.060000002
  vertex 0.00088215433 0.008956663 0
 endloop
endfacet
facet normal 0.14673088 0.9891765 0
 outer loop
  vertex 0.00088215433 0.008956663 0
  vertex 0.00088215433 0.008956663 0.060000002
  vertex 0.001755813 0.008827068 0.060000002
 endloop
endfacet
facet normal 0.14673088 0.9891765 -0
 outer loop
  vertex 0.00088215433 0.008956663 0
  vertex 0.001755813 0.008827068 0.060000002
  vertex 0.001755813 0.008827068 0
 endloop
endfacet
facet normal 0.24298029 0.97003114 0
 outer loop
  vertex 0.001755813 0.008827068 0
  vertex 0.001755813 0.008827068 0.060000002
  vertex 0.0026125624 0.008612463 0.060000002
 endloop
endfacet
facet normal 0.24298029 0.97003114 -0
 outer loop
  vertex 0.001755813 0.008827068 0
  vertex 0.0026125624 0.008612463 0.060000002
  vertex 0.0026125624 0.008612463 0
 endloop
endfacet
facet normal 0.33688992 0.94154406 0
 outer loop
  vertex 0.0026125624 0.008612463 0
  vertex 0.0026125624 0.008612463 0.060000002
  vertex 0.0034441513 0.008314916 0.060000002
 endloop
endfacet
facet normal 0.33688992 0.94154406 -0
 outer loop
  vertex 0.0026125624 0.008612463 0
  vertex 0.0034441513 0.008314916 0.060000002
  vertex 0.0034441513 0.008314916 0
 endloop
endfacet
facet normal 0.42755497 0.9039894 0
 outer loop
  vertex 0.0034441513 0.008314916 0
  vertex 0.0034441513 0.008314916 0.060000002
  vertex 0.004242571 0.007937292 0.060000002
 endloop
endfacet
facet normal 0.42755497 0.9039894 -0
 outer loop
  vertex 0.0034441513 0.008314916 0
  vertex 0.004242571 0.007937292 0.060000002
  vertex 0.004242571 0.007937292 0
 endloop
endfacet
facet normal 0.51410276 0.8577286 0
 outer loop
  vertex 0.004242571 0.007937292 0
  vertex 0.004242571 0.007937292 0.060000002
  vertex 0.0050001326 0.0074832267 0.060000002
 endloop
endfacet
facet normal 0.51410276 0.8577286 -0
 outer loop
  vertex 0.004242571 0.007937292 0
  vertex 0.0050001326 0.0074832267 0.060000002
  vertex 0.0050001326 0.0074832267 0
 endloop
endfacet
facet normal 0.59569913 0.8032077 0
 outer loop
  vertex 0.0050001326 0.0074832267 0
  vertex 0.0050001326 0.0074832267 0.060000002
  vertex 0.0057095406 0.006957094 0.060000002
 endloop
endfacet
facet normal 0.59569913 0.8032077 -0
 outer loop
  vertex 0.0050001326 0.0074832267 0
  vertex 0.0057095406 0.006957094 0.060000002
  vertex 0.0057095406 0.006957094 0
 endloop
endfacet
facet normal 0.6715592 0.74095094 0
 outer loop
  vertex 0.0057095406 0.006957094 0
  vertex 0.0057095406 0.006957094 0.060000002
  vertex 0.0063639614 0.0063639614 0.060000002
 endloop
endfacet
facet normal 0.6715592 0.74095094 -0
 outer loop
  vertex 0.0057095406 0.006957094 0
  vertex 0.0063639614 0.0063639614 0.060000002
  vertex 0.0063639614 0.0063639614 0
 endloop
endfacet
facet normal 0.74095094 0.6715592 0
 outer loop
  vertex 0.0063639614 0.0063639614 0
  vertex 0.0063639614 0.0063639614 0.060000002
  vertex 0.006957094 0.0057095406 0.060000002
 endloop
endfacet
facet normal 0.74095094 0.6715592 -0
 outer loop
  vertex 0.0063639614 0.0063639614 0
  vertex 0.006957094 0.0057095406 0.060000002
  vertex 0.006957094 0.0057095406 0
 endloop
endfacet
facet normal 0.8032077 0.59569913 0
 outer loop
  vertex 0.006957094 0.0057095406 0
  vertex 0.006957094 0.0057095406 0.060000002
  vertex 0.0074832267 0.0050001326 0.060000002
 endloop
endfacet
facet normal 0.8032077 0.59569913 -0
 outer loop
  vertex 0.006957094 0.0057095406 0
  vertex 0.0074832267 0.0050001326 0.060000002
  vertex 0.0074832267 0.0050001326 0
 endloop
endfacet
facet normal 0.8577286 0.51410276 0
 outer loop
  vertex 0.0074832267 0.0050001326 0
  vertex 0.0074832267 0.0050001326 0.060000002
  vertex 0.007937292 0.004242571 0.060000002
 endloop
endfacet
facet normal 0.8577286 0.51410276 -0
 outer loop
  vertex 0.0074832267 0.0050001326 0
  vertex 0.007937292 0.004242571 0.060000002
  vertex 0.007937292 0.004242571 0
 endloop
endfacet
facet normal 0.9039894 0.42755497 0
 outer loop
  vertex 0.007937292 0.004242571 0
  vertex 0.007937292 0.004242571 0.060000002
  vertex 0.008314916 0.0034441513 0.060000002
 endloop
endfacet
facet normal 0.9039894 0.42755497 -0
 outer loop
  vertex 0.007937292 0.004242571 0
  vertex 0.008314916 0.0034441513 0.060000002
  vertex 0.008314916 0.0034441513 0
 endloop
endfacet
facet normal 0.94154406 0.33688992 0
 outer loop
  vertex 0.008314916 0.0034441513 0
  vertex 0.008314916 0.0034441513 0.060000002
  vertex 0.008612463 0.0026125624 0.060000002
 endloop
endfacet
facet normal 0.94154406 0.33688992 -0
 outer loop
  vertex 0.008314916 0.0034441513 0
  vertex 0.008612463 0.0026125624 0.060000002
  vertex 0.008612463 0.0026125624 0
 endloop
endfacet
facet normal 0.97003114 0.24298029 0
 outer loop
  vertex 0.008612463 0.0026125624 0
  vertex 0.008612463 0.0026125624 0.060000002
  vertex 0.008827068 0.001755813 0.060000002
 endloop
endfacet
facet normal 0.97003114 0.24298029 -0
 outer loop
  vertex 0.008612463 0.0026125624 0
  vertex 0.008827068 0.001755813 0.060000002
  vertex 0.008827068 0.001755813 0
 endloop
endfacet
facet normal 0.9891765 0.14673088 0
 outer loop
  vertex 0.008827068 0.001755813 0
  vertex 0.008827068 0.001755813 0.060000002
  vertex 0.008956663 0.00088215433 0.060000002
 endloop
endfacet
facet normal 0.9891765 0.14673088 -0
 outer loop
  vertex 0.008827068 0.001755813 0
  vertex 0.008956663 0.00088215433 0.060000002
  vertex 0.008956663 0.00088215433 0
 endloop
endfacet
facet normal 0.99879545 0.049067415 0
 outer loop
  vertex 0.008956663 0.00088215433 0
  vertex 0.008956663 0.00088215433 0.060000002
  vertex 0.009000001 0 0.060000002
 endloop
endfacet
facet normal 0.99879545 0.049067415 -0
 outer loop
  vertex 0.008956663 0.00088215433 0
  vertex 0.009000001 0 0.060000002
  vertex 0.009000001 0 0
 endloop
endfacet
facet normal 0.99879545 -0.049067415 0
 outer loop
  vertex 0.009000001 0 0
  vertex 0.009000001 0 0.060000002
  vertex 0.008956663 -0.00088215433 0.060000002
 endloop
endfacet
facet normal 0.99879545 -0.049067415 0
 outer loop
  vertex 0.009000001 0 0
  vertex 0.008956663 -0.00088215433 0.060000002
  vertex 0.008956663 -0.00088215433 0
 endloop
endfacet
facet normal 0.9891765 -0.14673088 0
 outer loop
  vertex 0.008956663 -0.00088215433 0
  vertex 0.008956663 -0.00088215433 0.060000002
  vertex 0.008827068 -0.001755813 0.060000002
 endloop
endfacet
facet normal 0.9891765 -0.14673088 0
 outer loop
  vertex 0.008956663 -0.00088215433 0
  vertex 0.008827068 -0.001755813 0.060000002
  vertex 0.008827068 -0.001755813 0
 endloop
endfacet
facet normal 0.97003114 -0.24298029 0
 outer loop
  vertex 0.008827068 -0.001755813 0
  vertex 0.008827068 -0.001755813 0.060000002
  vertex 0.008612463 -0.0026125624 0.060000002
 endloop
endfacet
facet normal 0.97003114 -0.24298029 0
 outer loop
  vertex 0.008827068 -0.001755813 0
  vertex 0.008612463 -0.0026125624 0.060000002
  vertex 0.008612463 -0.0026125624 0
 endloop
endfacet
facet normal 0.94154406 -0.33688992 0
 outer loop
  vertex 0.008612463 -0.0026125624 0
  vertex 0.008612463 -0.0026125624 0.060000002
  vertex 0.008314916 -0.0034441513 0.060000002
 endloop
endfacet
facet normal 0.94154406 -0.33688992 0
 outer loop
  vertex 0.008612463 -0.0026125624 0
  vertex 0.008314916 -0.0034441513 0.060000002
  vertex 0.008314916 -0.0034441513 0
 endloop
endfacet
facet normal 0.9039894 -0.42755497 0
 outer loop
  vertex 0.008314916 -0.0034441513 0
  vertex 0.008314916 -0.0034441513 0.060000002
  vertex 0.007937292 -0.004242571 0.060000002
 endloop
endfacet
facet normal 0.9039894 -0.42755497 0
 outer loop
  vertex 0.008314916 -0.0034441513 0
  vertex 0.007937292 -0.004242571 0.060000002
  vertex 0.007937292 -0.004242571 0
 endloop
endfacet
facet normal 0.8577286 -0.51410276 0
 outer loop
  vertex 0.007937292 -0.004242571 0
  vertex 0.007937292 -0.004242571 0.060000002
  vertex 0.0074832267 -0.0050001326 0.060000002
 endloop
endfacet
facet normal 0.8577286 -0.51410276 0
 outer loop
  vertex 0.007937292 -0.004242571 0
  vertex 0.0074832267 -0.0050001326 0.060000002
  vertex 0.0074832267 -0.0050001326 0
 endloop
endfacet
facet normal 0.8032077 -0.59569913 0
 outer loop
  vertex 0.0074832267 -0.0050001326 0
  vertex 0.0074832267 -0.0050001326 0.060000002
  vertex 0.006957094 -0.0057095406 0.060000002
 endloop
endfacet
facet normal 0.8032077 -0.59569913 0
 outer loop
  vertex 0.0074832267 -0.0050001326 0
  vertex 0.006957094 -0.0057095406 0.060000002
  vertex 0.006957094 -0.0057095406 0
 endloop
endfacet
facet normal 0.74095094 -0.6715592 0
 outer loop
  vertex 0.006957094 -0.0057095406 0
  vertex 0.006957094 -0.0057095406 0.060000002
  vertex 0.0063639614 -0.0063639614 0.060000002
 endloop
endfacet
facet normal 0.74095094 -0.6715592 0
 outer loop
  vertex 0.006957094 -0.0057095406 0
  vertex 0.0063639614 -0.0063639614 0.060000002
  vertex 0.0063639614 -0.0063639614 0
 endloop
endfacet
facet normal 0.6715592 -0.74095094 0
 outer loop
  vertex 0.0063639614 -0.0063639614 0
  vertex 0.0063639614 -0.0063639614 0.060000002
  vertex 0.0057095406 -0.006957094 0.060000002
 endloop
endfacet
facet normal 0.6715592 -0.74095094 0
 outer loop
  vertex 0.0063639614 -0.0063639614 0
  vertex 0.0057095406 -0.006957094 0.060000002
  vertex 0.0057095406 -0.006957094 0
 endloop
endfacet
facet normal 0.59569913 -0.8032077 0
 outer loop
  vertex 0.0057095406 -0.006957094 0
  vertex 0.0057095406 -0.006957094 0.060000002
  vertex 0.0050001326 -0.0074832267 0.060000002
 endloop
endfacet
facet normal 0.59569913 -0.8032077 0
 outer loop
  vertex 0.0057095406 -0.006957094 0
  vertex 0.0050001326 -0.0074832267 0.060000002
  vertex 0.0050001326 -0.0074832267 0
 endloop
endfacet
facet normal 0.51410276 -0.8577286 0
 outer loop
  vertex 0.0050001326 -0.0074832267 0
  vertex 0.0050001326 -0.0074832267 0.060000002
  vertex 0.004242571 -0.007937292 0.060000002
 endloop
endfacet
facet normal 0.51410276 -0.8577286 0
 outer loop
  vertex 0.0050001326 -0.0074832267 0
  vertex 0.004242571 -0.007937292 0.060000002
  vertex 0.004242571 -0.007937292 0
 endloop
endfacet
facet normal 0.42755497 -0.9039894 0
 outer loop
  vertex 0.004242571 -0.007937292 0
  vertex 0.004242571 -0.007937292 0.060000002
  vertex 0.0034441513 -0.008314916 0.060000002
 endloop
endfacet
facet normal 0.42755497 -0.9039894 0
 outer loop
  vertex 0.004242571 -0.007937292 0
  vertex 0.0034441513 -0.008314916 0.060000002
  vertex 0.0034441513 -0.008314916 0
 endloop
endfacet
facet normal 0.33688992 -0.94154406 0
 outer loop
  vertex 0.0034441513 -0.008314916 0
  vertex 0.0034441513 -0.008314916 0.060000002
  vertex 0.0026125624 -0.008612463 0.060000002
 endloop
endfacet
facet normal 0.33688992 -0.94154406 0
 outer loop
  vertex 0.0034441513 -0.008314916 0
  vertex 0.0026125624 -0.008612463 0.060000002
  vertex 0.0026125624 -0.008612463 0
 endloop
endfacet
facet normal 0.24298029 -0.97003114 0
 outer loop
  vertex 0.0026125624 -0.008612463 0
  vertex 0.0026125624 -0.008612463 0.060000002
  vertex 0.001755813 -0.008827068 0.060000002
 endloop
endfacet
facet normal 0.24298029 -0.97003114 0
 outer loop
  vertex 0.0026125624 -0.008612463 0
  vertex 0.001755813 -0.008827068 0.060000002
  vertex 0.001755813 -0.008827068 0
 endloop
endfacet
facet normal 0.14673088 -0.9891765 0
 outer loop
  vertex 0.001755813 -0.008827068 0
  vertex 0.001755813 -0.008827068 0.060000002
  vertex 0.00088215433 -0.008956663 0.060000002
 endloop
endfacet
facet normal 0.14673088 -0.9891765 0
 outer loop
  vertex 0.001755813 -0.008827068 0
  vertex 0.00088215433 -0.008956663 0.060000002
  vertex 0.00088215433 -0.008956663 0
 endloop
endfacet
facet normal 0.049067415 -0.99879545 0
 outer loop
  vertex 0.00088215433 -0.008956663 0
  vertex 0.00088215433 -0.008956663 0.060000002
  vertex 0 -0.009000001 0.060000002
 endloop
endfacet
facet normal 0.049067415 -0.99879545 0
 outer loop
  vertex 0.00088215433 -0.008956663 0
  vertex 0 -0.009000001 0.060000002
  vertex 0 -0.009000001 0
 endloop
endfacet
facet normal -0.049067415 -0.99879545 -0
 outer loop
  vertex 0 -0.009000001 0
  vertex 0 -0.009000001 0.060000002
  vertex -0.00088215433 -0.008956663 0.060000002
 endloop
endfacet
facet normal -0.049067415 -0.99879545 0
 outer loop
  vertex 0 -0.009000001 0
  vertex -0.00088215433 -0.008956663 0.060000002
  vertex -0.00088215433 -0.008956663 0
 endloop
endfacet
facet normal -0.14673088 -0.9891765 -0
 outer loop
  vertex -0.00088215433 -0.008956663 0
  vertex -0.00088215433 -0.008956663 0.060000002
  vertex -0.001755813 -0.008827068 0.060000002
 endloop
endfacet
facet normal -0.14673088 -0.9891765 0
 outer loop
  vertex -0.00088215433 -0.008956663 0
  vertex -0.001755813 -0.008827068 0.060000002
  vertex -0.001755813 -0.008827068 0
 endloop
endfacet
facet normal -0.24298029 -0.97003114 -0
 outer loop
  vertex -0.001755813 -0.008827068 0
  vertex -0.001755813 -0.008827068 0.060000002
  vertex -0.0026125624 -0.008612463 0.060000002
 endloop
endfacet
facet normal -0.24298029 -0.97003114 0
 outer loop
  vertex -0.001755813 -0.008827068 0
  vertex -0.0026125624 -0.008612463 0.060000002
  vertex -0.0026125624 -0.008612463 0
 endloop
endfacet
facet normal -0.33688992 -0.94154406 -0
 outer loop
  vertex -0.0026125624 -0.008612463 0
  vertex -0.0026125624 -0.008612463 0.060000002
  vertex -0.0034441513 -0.008314916 0.060000002
 endloop
endfacet
facet normal -0.33688992 -0.94154406 0
 outer loop
  vertex -0.0026125624 -0.008612463 0
  vertex -0.0034441513 -0.008314916 0.060000002
  vertex -0.0034441513 -0.008314916 0
 endloop
endfacet
facet normal -0.42755497 -0.9039894 -0
 outer loop
  vertex -0.0034441513 -0.008314916 0
  vertex -0.0034441513 -0.008314916 0.060000002
  vertex -0.004242571 -0.007937292 0.060000002
 endloop
endfacet
facet normal -0.42755497 -0.9039894 0
 outer loop
  vertex -0.0034441513 -0.008314916 0
  vertex -0.004242571 -0.007937292 0.060000002
  vertex -0.004242571 -0.007937292 0
 endloop
endfacet
facet normal -0.51410276 -0.8577286 -0
 outer loop
  vertex -0.004242571 -0.007937292 0
  vertex -0.004242571 -0.007937292 0.060000002
  vertex -0.0050001326 -0.0074832267 0.060000002
 endloop
endfacet
facet normal -0.51410276 -0.8577286 0
 outer loop
  vertex -0.004242571 -0.007937292 0
  vertex -0.0050001326 -0.0074832267 0.060000002
  vertex -0.0050001326 -0.0074832267 0
 endloop
endfacet
facet normal -0.59569913 -0.8032077 -0
 outer loop
  vertex -0.0050001326 -0.0074832267 0
  vertex -0.0050001326 -0.0074832267 0.060000002
  vertex -0.0057095406 -0.006957094 0.060000002
 endloop
endfacet
facet normal -0.59569913 -0.8032077 0
 outer loop
  vertex -0.0050001326 -0.0074832267 0
  vertex -0.0057095406 -0.006957094 0.060000002
  vertex -0.0057095406 -0.006957094 0
 endloop
endfacet
facet normal -0.6715592 -0.74095094 -0
 outer loop
  vertex -0.0057095406 -0.006957094 0
  vertex -0.0057095406 -0.006957094 0.060000002
  vertex -0.0063639614 -0.0063639614 0.060000002
 endloop
endfacet
facet normal -0.6715592 -0.74095094 0
 outer loop
  vertex -0.0057095406 -0.006957094 0
  vertex -0.0063639614 -0.0063639614 0.060000002
  vertex -0.0063639614 -0.0063639614 0
 endloop
endfacet
facet normal -0.74095094 -0.6715592 -0
 outer loop
  vertex -0.0063639614 -0.0063639614 0
  vertex -0.0063639614 -0.0063639614 0.060000002
  vertex -0.006957094 -0.0057095406 0.060000002
 endloop
endfacet
facet normal -0.74095094 -0.6715592 0
 outer loop
  vertex -0.0063639614 -0.0063639614 0
  vertex -0.006957094 -0.0057095406 0.060000002
  vertex -0.006957094 -0.0057095406 0
 endloop
endfacet
facet normal -0.8032077 -0.59569913 -0
 outer loop
  vertex -0.006957094 -0.0057095406 0
  vertex -0.006957094 -0.0057095406 0.060000002
  vertex -0.0074832267 -0.0050001326 0.060000002
 endloop
endfacet
facet normal -0.8032077 -0.59569913 0
 outer loop
  vertex -0.006957094 -0.0057095406 0
  vertex -0.0074832267 -0.0050001326 0.060000002
  vertex -0.0074832267 -0.0050001326 0
 endloop
endfacet
facet normal -0.8577286 -0.51410276 -0
 outer loop
  vertex -0.0074832267 -0.0050001326 0
  vertex -0.0074832267 -0.0050001326 0.060000002
  vertex -0.007937292 -0.004242571 0.060000002
 endloop
endfacet
facet normal -0.8577286 -0.51410276 0
 outer loop
  vertex -0.0074832267 -0.0050001326 0
  vertex -0.007937292 -0.004242571 0.060000002
  vertex -0.007937292 -0.004242571 0
 endloop
endfacet
facet normal -0.9039894 -0.42755497 -0
 outer loop
  vertex -0.007937292 -0.004242571 0
  vertex -0.007937292 -0.004242571 0.060000002
  vertex -0.008314916 -0.0034441513 0.060000002
 endloop
endfacet
facet normal -0.9039894 -0.42755497 0
 outer loop
  vertex -0.007937292 -0.004242571 0
  vertex -0.008314916 -0.0034441513 0.060000002
  vertex -0.008314916 -0.0034441513 0
 endloop
endfacet
facet normal -0.94154406 -0.33688992 -0
 outer loop
  vertex -0.008314916 -0.0034441513 0
  vertex -0.008314916 -0.0034441513 0.060000002
  vertex -0.008612463 -0.0026125624 0.060000002
 endloop
endfacet
facet normal -0.94154406 -0.33688992 0
 outer loop
  vertex -0.008314916 -0.0034441513 0
  vertex -0.008612463 -0.0026125624 0.060000002
  vertex -0.008612463 -0.0026125624 0
 endloop
endfacet
facet normal -0.97003114 -0.24298029 -0
 outer loop
  vertex -0.008612463 -0.0026125624 0
  vertex -0.008612463 -0.0026125624 0.060000002
  vertex -0.008827068 -0.001755813 0.060000002
 endloop
endfacet
facet normal -0.97003114 -0.24298029 0
 outer loop
  vertex -0.008612463 -0.0026125624 0
  vertex -0.008827068 -0.001755813 0.060000002
  vertex -0.008827068 -0.001755813 0
 endloop
endfacet
facet normal -0.9891765 -0.14673088 -0
 outer loop
  vertex -0.008827068 -0.001755813 0
  vertex -0.008827068 -0.001755813 0.060000002
  vertex -0.008956663 -0.00088215433 0.060000002
 endloop
endfacet
facet normal -0.9891765 -0.14673088 0
 outer loop
  vertex -0.008827068 -0.001755813 0
  vertex -0.008956663 -0.00088215433 0.060000002
  vertex -0.008956663 -0.00088215433 0
 endloop
endfacet
facet normal -0.99879545 -0.049067415 -0
 outer loop
  vertex -0.008956663 -0.00088215433 0
  vertex -0.008956663 -0.00088215433 0.060000002
  vertex -0.009000001 0 0.060000002
 endloop
endfacet
facet normal -0.99879545 -0.049067415 0
 outer loop
  vertex -0.008956663 -0.00088215433 0
  vertex -0.009000001 0 0.060000002
  vertex -0.009000001 0 0
 endloop
endfacet
facet normal -0.99879545 0.049067415 0
 outer loop
  vertex -0.009000001 0 0
  vertex -0.009000001 0 0.060000002
  vertex -0.008956663 0.00088215433 0.060000002
 endloop
endfacet
facet normal -0.99879545 0.049067415 0
 outer loop
  vertex -0.009000001 0 0
  vertex -0.008956663 0.00088215433 0.060000002
  vertex -0.008956663 0.00088215433 0
 endloop
endfacet
facet normal -0.9891765 0.14673088 0
 outer loop
  vertex -0.008956663 0.00088215433 0
  vertex -0.008956663 0.00088215433 0.060000002
  vertex -0.008827068 0.001755813 0.060000002
 endloop
endfacet
facet normal -0.9891765 0.14673088 0
 outer loop
  vertex -0.008956663 0.00088215433 0
  vertex -0.008827068 0.001755813 0.060000002
  vertex -0.008827068 0.001755813 0
 endloop
endfacet
facet normal -0.97003114 0.24298029 0
 outer loop
  vertex -0.008827068 0.001755813 0
  vertex -0.008827068 0.001755813 0.060000002
  vertex -0.008612463 0.0026125624 0.060000002
 endloop
endfacet
facet normal -0.97003114 0.24298029 0
 outer loop
  vertex -0.008827068 0.001755813 0
  vertex -0.008612463 0.0026125624 0.060000002
  vertex -0.008612463 0.0026125624 0
 endloop
endfacet
facet normal -0.94154406 0.33688992 0
 outer loop
  vertex -0.008612463 0.0026125624 0
  vertex -0.008612463 0.0026125624 0.060000002
  vertex -0.008314916 0.0034441513 0.060000002
 endloop
endfacet
facet normal -0.94154406 0.33688992 0
 outer loop
  vertex -0.008612463 0.0026125624 0
  vertex -0.008314916 0.0034441513 0.060000002
  vertex -0.008314916 0.0034441513 0
 endloop
endfacet
facet normal -0.9039894 0.42755497 0
 outer loop
  vertex -0.008314916 0.0034441513 0
  vertex -0.008314916 0.0034441513 0.060000002
  vertex -0.007937292 0.004242571 0.060000002
 endloop
endfacet
facet normal -0.9039894 0.42755497 0
 outer loop
  vertex -0.008314916 0.0034441513 0
  vertex -0.007937292 0.004242571 0.060000002
  vertex -0.007937292 0.004242571 0
 endloop
endfacet
facet normal -0.8577286 0.51410276 0
 outer loop
  vertex -0.007937292 0.004242571 0
  vertex -0.007937292 0.004242571 0.060000002
  vertex -0.0074832267 0.0050001326 0.060000002
 endloop
endfacet
facet normal -0.8577286 0.51410276 0
 outer loop
  vertex -0.007937292 0.004242571 0
  vertex -0.0074832267 0.0050001326 0.060000002
  vertex -0.0074832267 0.0050001326 0
 endloop
endfacet
facet normal -0.8032077 0.59569913 0
 outer loop
  vertex -0.0074832267 0.0050001326 0
  vertex -0.0074832267 0.0050001326 0.060000002
  vertex -0.006957094 0.0057095406 0.060000002
 endloop
endfacet
facet normal -0.8032077 0.59569913 0
 outer loop
  vertex -0.0074832267 0.0050001326 0
  vertex -0.006957094 0.0057095406 0.060000002
  vertex -0.006957094 0.0057095406 0
 endloop
endfacet
facet normal -0.74095094 0.6715592 0
 outer loop
  vertex -0.006957094 0.0057095406 0
  vertex -0.006957094 0.0057095406 0.060000002
  vertex -0.0063639614 0.0063639614 0.060000002
 endloop
endfacet
facet normal -0.74095094 0.6715592 0
 outer loop
  vertex -0.006957094 0.0057095406 0
  vertex -0.0063639614 0.0063639614 0.060000002
  vertex -0.0063639614 0.0063639614 0
 endloop
endfacet
facet normal -0.6715592 0.74095094 0
 outer loop
  vertex -0.0063639614 0.0063639614 0
  vertex -0.0063639614 0.0063639614 0.060000002
  vertex -0.0057095406 0.006957094 0.060000002
 endloop
endfacet
facet normal -0.6715592 0.74095094 0
 outer loop
  vertex -0.0063639614 0.0063639614 0
  vertex -0.0057095406 0.006957094 0.060000002
  vertex -0.0057095406 0.006957094 0
 endloop
endfacet
facet normal -0.59569913 0.8032077 0
 outer loop
  vertex -0.0057095406 0.006957094 0
  vertex -0.0057095406 0.006957094 0.060000002
  vertex -0.0050001326 0.0074832267 0.060000002
 endloop
endfacet
facet normal -0.59569913 0.8032077 0
 outer loop
  vertex -0.0057095406 0.006957094 0
  vertex -0.0050001326 0.0074832267 0.060000002
  vertex -0.0050001326 0.0074832267 0
 endloop
endfacet
facet normal -0.51410276 0.8577286 0
 outer loop
  vertex -0.0050001326 0.0074832267 0
  vertex -0.0050001326 0.0074832267 0.060000002
  vertex -0.004242571 0.007937292 0.060000002
 endloop
endfacet
facet normal -0.51410276 0.8577286 0
 outer loop
  vertex -0.0050001326 0.0074832267 0
  vertex -0.004242571 0.007937292 0.060000002
  vertex -0.004242571 0.007937292 0
 endloop
endfacet
facet normal -0.42755497 0.9039894 0
 outer loop
  vertex -0.004242571 0.007937292 0
  vertex -0.004242571 0.007937292 0.060000002
  vertex -0.0034441513 0.008314916 0.060000002
 endloop
endfacet
facet normal -0.42755497 0.9039894 0
 outer loop
  vertex -0.004242571 0.007937292 0
  vertex -0.0034441513 0.008314916 0.060000002
  vertex -0.0034441513 0.008314916 0
 endloop
endfacet
facet normal -0.33688992 0.94154406 0
 outer loop
  vertex -0.0034441513 0.008314916 0
  vertex -0.0034441513 0.008314916 0.060000002
  vertex -0.0026125624 0.008612463 0.060000002
 endloop
endfacet
facet normal -0.33688992 0.94154406 0
 outer loop
  vertex -0.0034441513 0.008314916 0
  vertex -0.0026125624 0.008612463 0.060000002
  vertex -0.0026125624 0.008612463 0
 endloop
endfacet
facet normal -0.24298029 0.97003114 0
 outer loop
  vertex -0.0026125624 0.008612463 0
  vertex -0.0026125624 0.008612463 0.060000002
  vertex -0.001755813 0.008827068 0.060000002
 endloop
endfacet
facet normal -0.24298029 0.97003114 0
 outer loop
  vertex -0.0026125624 0.008612463 0
  vertex -0.001755813 0.008827068 0.060000002
  vertex -0.001755813 0.008827068 0
 endloop
endfacet
facet normal -0.14673088 0.9891765 0
 outer loop
  vertex -0.001755813 0.008827068 0
  vertex -0.001755813 0.008827068 0.060000002
  vertex -0.00088215433 0.008956663 0.060000002
 endloop
endfacet
facet normal -0.14673088 0.9891765 0
 outer loop
  vertex -0.001755813 0.008827068 0
  vertex -0.00088215433 0.008956663 0.060000002
  vertex -0.00088215433 0.008956663 0
 endloop
endfacet
facet normal -0.049067415 0.99879545 0
 outer loop
  vertex -0.00088215433 0.008956663 0
  vertex -0.00088215433 0.008956663 0.060000002
  vertex 0 0.009000001 0.060000002
 endloop
endfacet
facet normal -0.049067415 0.99879545 0
 outer loop
  vertex -0.00088215433 0.008956663 0
  vertex 0 0.009000001 0.060000002
  vertex 0 0.009000001 0
 endloop
endfacet
facet normal 0 0 1
 outer loop
  vertex 0 0.006997588 0.060000002
  vertex 0.00068588345 0.006963893 0.060000002
  vertex 0.00088215433 0.008956663 0.060000002
 endloop
endfacet
facet normal 0 0 1
 outer loop
  vertex 0 0.006997588 0.060000002
  vertex 0.00088215433 0.008956663 0.060000002
  vertex 0 0.009000001 0.060000002
 endloop
endfacet
facet normal 0 0 1
 outer loop
  vertex 0.00068588345 0.006963893 0.060000002
  vertex 0.0013651613 0.006863132 0.060000002
  vertex 0.001755813 0.008827068 0.060000002
 endloop
endfacet
facet normal 0 0 1
 outer loop
  vertex 0.00068588345 0.006963893 0.060000002
  vertex 0.001755813 0.008827068 0.060000002
  vertex 0.00088215433 0.008956663 0.060000002
 endloop
endfacet
facet normal 0 0 1
 outer loop
  vertex 0.0013651613 0.006863132 0.060000002
  vertex 0.0020312928 0.0066962745 0.060000002
  vertex 0.0026125624 0.008612463 0.060000002
 endloop
endfacet
facet normal 0 0 1
 outer loop
  vertex 0.0013651613 0.006863132 0.060000002
  vertex 0.0026125624 0.008612463 0.060000002
  vertex 0.001755813 0.008827068 0.060000002
 endloop
endfacet
facet normal 0 0 1
 outer loop
  vertex 0.0020312928 0.0066962745 0.060000002
  vertex 0.0026778614 0.0064649284 0.060000002
  vertex 0.0034441513 0.008314916 0.060000002
 endloop
endfacet
facet normal 0 0 1
 outer loop
  vertex 0.0020312928 0.0066962745 0.060000002
  vertex 0.0034441513 0.008314916 0.060000002
  vertex 0.0026125624 0.008612463 0.060000002
 endloop
endfacet
facet normal 0 0 1
 outer loop
  vertex 0.0026778614 0.0064649284 0.060000002
  vertex 0.0032986407 0.0061713215 0.060000002
  vertex 0.004242571 0.007937292 0.060000002
 endloop
endfacet
facet normal 0 0 1
 outer loop
  vertex 0.0026778614 0.0064649284 0.060000002
  vertex 0.004242571 0.007937292 0.060000002
  vertex 0.0034441513 0.008314916 0.060000002
 endloop
endfacet
facet normal 0 0 1
 outer loop
  vertex 0.0032986407 0.0061713215 0.060000002
  vertex 0.0038876524 0.005818282 0.060000002
  vertex 0.0050001326 0.0074832267 0.060000002
 endloop
endfacet
facet normal 0 0 1
 outer loop
  vertex 0.0032986407 0.0061713215 0.060000002
  vertex 0.0050001326 0.0074832267 0.060000002
  vertex 0.004242571 0.007937292 0.060000002
 endloop
endfacet
facet normal 0 0 1
 outer loop
  vertex 0.0038876524 0.005818282 0.060000002
  vertex 0.0044392236 0.005409209 0.060000002
  vertex 0.0057095406 0.006957094 0.060000002
 endloop
endfacet
facet normal 0 0 1
 outer loop
  vertex 0.0038876524 0.005818282 0.060000002
  vertex 0.0057095406 0.006957094 0.060000002
  vertex 0.0050001326 0.0074832267 0.060000002
 endloop
endfacet
facet normal 0 0 1
 outer loop
  vertex 0.0044392236 0.005409209 0.060000002
  vertex 0.0049480423 0.0049480423 0.060000002
  vertex 0.0063639614 0.0063639614 0.060000002
 endloop
endfacet
facet normal 0 0 1
 outer loop
  vertex 0.0044392236 0.005409209 0.060000002
  vertex 0.0063639614 0.0063639614 0.060000002
  vertex 0.0057095406 0.006957094 0.060000002
 endloop
endfacet
facet normal 0 0 1
 outer loop
  vertex 0.0049480423 0.0049480423 0.060000002
  vertex 0.005409209 0.0044392236 0.060000002
  vertex 0.006957094 0.0057095406 0.060000002
 endloop
endfacet
facet normal 0 0 1
 outer loop
  vertex 0.0049480423 0.0049480423 0.060000002
  vertex 0.006957094 0.0057095406 0.060000002
  vertex 0.0063639614 0.0063639614 0.060000002
 endloop
endfacet
facet normal 0 0 1
 outer loop
  vertex 0.005409209 0.0044392236 0.060000002
  vertex 0.005818282 0.0038876524 0.060000002
  vertex 0.0074832267 0.0050001326 0.060000002
 endloop
endfacet
facet normal 0 0 1
 outer loop
  vertex 0.005409209 0.0044392236 0.060000002
  vertex 0.0074832267 0.0050001326 0.060000002
  vertex 0.006957094 0.0057095406 0.060000002
 endloop
endfacet
facet normal 0 0 1
 outer loop
  vertex 0.005818282 0.0038876524 0.060000002
  vertex 0.0061713215 0.0032986407 0.060000002
  vertex 0.007937292 0.004242571 0.060000002
 endloop
endfacet
facet normal 0 0 1
 outer loop
  vertex 0.005818282 0.0038876524 0.060000002
  vertex 0.007937292 0.004242571 0.060000002
  vertex 0.0074832267 0.0050001326 0.060000002
 endloop
endfacet
facet normal 0 0 1
 outer loop
  vertex 0.0061713215 0.0032986407 0.060000002
  vertex 0.0064649284 0.0026778614 0.060000002
  vertex 0.008314916 0.0034441513 0.060000002
 endloop
endfacet
facet normal 0 0 1
 outer loop
  vertex 0.0061713215 0.0032986407 0.060000002
  vertex 0.008314916 0.0034441513 0.060000002
  vertex 0.007937292 0.004242571 0.060000002
 endloop
endfacet
facet normal 0 0 1
 outer loop
  vertex 0.0064649284 0.0026778614 0.060000002
  vertex 0.0066962745 0.0020312928 0.060000002
  vertex 0.008612463 0.0026125624 0.060000002
 endloop
endfacet
facet normal 0 0 1
 outer loop
  vertex 0.0064649284 0.0026778614 0.060000002
  vertex 0.008612463 0.0026125624 0.060000002
  vertex 0.008314916 0.0034441513 0.060000002
 endloop
endfacet
facet normal 0 0 1
 outer loop
  vertex 0.0066962745 0.0020312928 0.060000002
  vertex 0.0068631317 0.0013651613 0.060000002
  vertex 0.008827068 0.001755813 0.060000002
 endloop
endfacet
facet normal 0 0 1
 outer loop
  vertex 0.0066962745 0.0020312928 0.060000002
  vertex 0.008827068 0.001755813 0.060000002
  vertex 0.008612463 0.0026125624 0.060000002
 endloop
endfacet
facet normal 0 0 1
 outer loop
  vertex 0.0068631317 0.0013651613 0.060000002
  vertex 0.0069638933 0.00068588345 0.060000002
  vertex 0.008956663 0.00088215433 0.060000002
 endloop
endfacet
facet normal 0 0 1
 outer loop
  vertex 0.0068631317 0.0013651613 0.060000002
  vertex 0.008956663 0.00088215433 0.060000002
  vertex 0.008827068 0.001755813 0.060000002
 endloop
endfacet
facet normal 0 0 1
 outer loop
  vertex 0.0069638933 0.00068588345 0.060000002
  vertex 0.006997588 0 0.060000002
  vertex 0.009000001 0 0.060000002
 endloop
endfacet
facet normal 0 0 1
 outer loop
  vertex 0.0069638933 0.00068588345 0.060000002
  vertex 0.009000001 0 0.060000002
  vertex 0.008956663 0.00088215433 0.060000002
 endloop
endfacet
facet normal 0 -0 1
 outer loop
  vertex 0.006997588 0 0.060000002
  vertex 0.006963893 -0.00068588345 0.060000002
  vertex 0.008956663 -0.00088215433 0.060000002
 endloop
endfacet
facet normal 0 0 1
 outer loop
  vertex 0.006997588 0 0.060000002
  vertex 0.008956663 -0.00088215433 0.060000002
  vertex 0.009000001 0 0.060000002
 endloop
endfacet
facet normal 0 -0 1
 outer loop
  vertex 0.006963893 -0.00068588345 0.060000002
  vertex 0.006863132 -0.0013651613 0.060000002
  vertex 0.008827068 -0.001755813 0.060000002
 endloop
endfacet
facet normal 0 0 1
 outer loop
  vertex 0.006963893 -0.00068588345 0.060000002
  vertex 0.008827068 -0.001755813 0.060000002
  vertex 0.008956663 -0.00088215433 0.060000002
 endloop
endfacet
facet normal 0 -0 1
 outer loop
  vertex 0.006863132 -0.0013651613 0.060000002
  vertex 0.0066962745 -0.0020312928 0.060000002
  vertex 0.008612463 -0.0026125624 0.060000002
 endloop
endfacet
facet normal 0 0 1
 outer loop
  vertex 0.006863132 -0.0013651613 0.060000002
  vertex 0.008612463 -0.0026125624 0.060000002
  vertex 0.008827068 -0.001755813 0.060000002
 endloop
endfacet
facet normal 0 -0 1
 outer loop
  vertex 0.0066962745 -0.0020312928 0.060000002
  vertex 0.0064649284 -0.0026778614 0.060000002
  vertex 0.008314916 -0.0034441513 0.060000002
 endloop
endfacet
facet normal 0 0 1
 outer loop
  vertex 0.0066962745 -0.0020312928 0.060000002
  vertex 0.008314916 -0.0034441513 0.060000002
  vertex 0.008612463 -0.0026125624 0.060000002
 endloop
endfacet
facet normal 0 -0 1
 outer loop
  vertex 0.0064649284 -0.0026778614 0.060000002
  vertex 0.0061713215 -0.0032986407 0.060000002
  vertex 0.007937292 -0.004242571 0.060000002
 endloop
endfacet
facet normal 0 0 1
 outer loop
  vertex 0.0064649284 -0.0026778614 0.060000002
  vertex 0.007937292 -0.004242571 0.060000002
  vertex 0.008314916 -0.0034441513 0.060000002
 endloop
endfacet
facet normal 0 -0 1
 outer loop
  vertex 0.0061713215 -0.0032986407 0.060000002
  vertex 0.005818282 -0.0038876524 0.060000002
  vertex 0.0074832267 -0.0050001326 0.060000002
 endloop
endfacet
facet normal 0 0 1
 outer loop
  vertex 0.0061713215 -0.0032986407 0.060000002
  vertex 0.0074832267 -0.0050001326 0.060000002
  vertex 0.007937292 -0.004242571 0.060000002
 endloop
endfacet
facet normal 0 -0 1
 outer loop
  vertex 0.005818282 -0.0038876524 0.060000002
  vertex 0.005409209 -0.0044392236 0.060000002
  vertex 0.006957094 -0.0057095406 0.060000002
 endloop
endfacet
facet normal 0 0 1
 outer loop
  vertex 0.005818282 -0.0038876524 0.060000002
  vertex 0.006957094 -0.0057095406 0.060000002
  vertex 0.0074832267 -0.0050001326 0.060000002
 endloop
endfacet
facet normal 0 -0 1
 outer loop
  vertex 0.005409209 -0.0044392236 0.060000002
  vertex 0.0049480423 -0.0049480423 0.060000002
  vertex 0.0063639614 -0.0063639614 0.060000002
 endloop
endfacet
facet normal 0 0 1
 outer loop
  vertex 0.005409209 -0.0044392236 0.060000002
  vertex 0.0063639614 -0.0063639614 0.060000002
  vertex 0.006957094 -0.0057095406 0.060000002
 endloop
endfacet
facet normal 0 -0 1
 outer loop
  vertex 0.0049480423 -0.0049480423 0.060000002
  vertex 0.0044392236 -0.005409209 0.060000002
  vertex 0.0057095406 -0.006957094 0.060000002
 endloop
endfacet
facet normal 0 0 1
 outer loop
  vertex 0.0049480423 -0.0049480423 0.060000002
  vertex 0.0057095406 -0.006957094 0.060000002
  vertex 0.0063639614 -0.0063639614 0.060000002
 endloop
endfacet
facet normal 0 -0 1
 outer loop
  vertex 0.0044392236 -0.005409209 0.060000002
  vertex 0.0038876524 -0.005818282 0.060000002
  vertex 0.0050001326 -0.0074832267 0.060000002
 endloop
endfacet
facet normal 0 0 1
 outer loop
  vertex 0.0044392236 -0.005409209 0.060000002
  vertex 0.0050001326 -0.0074832267 0.060000002
  vertex 0.0057095406 -0.006957094 0.060000002
 endloop
endfacet
facet normal 0 -0 1
 outer loop
  vertex 0.0038876524 -0.005818282 0.060000002
  vertex 0.0032986407 -0.0061713215 0.060000002
  vertex 0.004242571 -0.007937292 0.060000002
 endloop
endfacet
facet normal 0 0 1
 outer loop
  vertex 0.0038876524 -0.005818282 0.060000002
  vertex 0.004242571 -0.007937292 0.060000002
  vertex 0.0050001326 -0.0074832267 0.060000002
 endloop
endfacet
facet normal 0 -0 1
 outer loop
  vertex 0.0032986407 -0.0061713215 0.060000002
  vertex 0.0026778614 -0.0064649284 0.060000002
  vertex 0.0034441513 -0.008314916 0.060000002
 endloop
endfacet
facet normal 0 0 1
 outer loop
  vertex 0.0032986407 -0.0061713215 0.060000002
  vertex 0.0034441513 -0.008314916 0.060000002
  vertex 0.004242571 -0.007937292 0.060000002
 endloop
endfacet
facet normal 0 -0 1
 outer loop
  vertex 0.0026778614 -0.0064649284 0.060000002
  vertex 0.0020312928 -0.0066962745 0.060000002
  vertex 0.0026125624 -0.008612463 0.060000002
 endloop
endfacet
facet normal 0 -0 1
 outer loop
  vertex 0.0026778614 -0.0064649284 0.060000002
  vertex 0.0026125624 -0.008612463 0.060000002
  vertex 0.0034441513 -0.008314916 0.060000002
 endloop
endfacet
facet normal 0 -0 1
 outer loop
  vertex 0.0020312928 -0.0066962745 0.060000002
  vertex 0.0013651613 -0.0068631317 0.060000002
  vertex 0.001755813 -0.008827068 0.060000002
 endloop
endfacet
facet normal 0 -0 1
 outer loop
  vertex 0.0020312928 -0.0066962745 0.060000002
  vertex 0.001755813 -0.008827068 0.060000002
  vertex 0.0026125624 -0.008612463 0.060000002
 endloop
endfacet
facet normal 0 -0 1
 outer loop
  vertex 0.0013651613 -0.0068631317 0.060000002
  vertex 0.00068588345 -0.0069638933 0.060000002
  vertex 0.00088215433 -0.008956663 0.060000002
 endloop
endfacet
facet normal 0 -0 1
 outer loop
  vertex 0.0013651613 -0.0068631317 0.060000002
  vertex 0.00088215433 -0.008956663 0.060000002
  vertex 0.001755813 -0.008827068 0.060000002
 endloop
endfacet
facet normal 0 0 1
 outer loop
  vertex 0.00068588345 -0.0069638933 0.060000002
  vertex 0 -0.006997588 0.060000002
  vertex 0 -0.009000001 0.060000002
 endloop
endfacet
facet normal 0 -0 1
 outer loop
  vertex 0.00068588345 -0.0069638933 0.060000002
  vertex 0 -0.009000001 0.060000002
  vertex 0.00088215433 -0.008956663 0.060000002
 endloop
endfacet
facet normal -0 0 1
 outer loop
  vertex 0 -0.006997588 0.060000002
  vertex -0.00068588345 -0.006963893 0.060000002
  vertex -0.00088215433 -0.008956663 0.060000002
 endloop
endfacet
facet normal 0 -0 1
 outer loop
  vertex 0 -0.006997588 0.060000002
  vertex -0.00088215433 -0.008956663 0.060000002
  vertex 0 -0.009000001 0.060000002
 endloop
endfacet
facet normal -0 0 1
 outer loop
  vertex -0.00068588345 -0.006963893 0.060000002
  vertex -0.0013651613 -0.006863132 0.060000002
  vertex -0.001755813 -0.008827068 0.060000002
 endloop
endfacet
facet normal 0 -0 1
 outer loop
  vertex -0.00068588345 -0.006963893 0.060000002
  vertex -0.001755813 -0.008827068 0.060000002
  vertex -0.00088215433 -0.008956663 0.060000002
 endloop
endfacet
facet normal -0 0 1
 outer loop
  vertex -0.0013651613 -0.006863132 0.060000002
  vertex -0.0020312928 -0.0066962745 0.060000002
  vertex -0.0026125624 -0.008612463 0.060000002
 endloop
endfacet
facet normal 0 -0 1
 outer loop
  vertex -0.0013651613 -0.006863132 0.060000002
  vertex -0.0026125624 -0.008612463 0.060000002
  vertex -0.001755813 -0.008827068 0.060000002
 endloop
endfacet
facet normal -0 0 1
 outer loop
  vertex -0.0020312928 -0.0066962745 0.060000002
  vertex -0.0026778614 -0.0064649284 0.060000002
  vertex -0.0034441513 -0.008314916 0.060000002
 endloop
endfacet
facet normal 0 -0 1
 outer loop
  vertex -0.0020312928 -0.0066962745 0.060000002
  vertex -0.0034441513 -0.008314916 0.060000002
  vertex -0.0026125624 -0.008612463 0.060000002
 endloop
endfacet
facet normal -0 0 1
 outer loop
  vertex -0.0026778614 -0.0064649284 0.060000002
  vertex -0.0032986407 -0.0061713215 0.060000002
  vertex -0.004242571 -0.007937292 0.060000002
 endloop
endfacet
facet normal 0 -0 1
 outer loop
  vertex -0.0026778614 -0.0064649284 0.060000002
  vertex -0.004242571 -0.007937292 0.060000002
  vertex -0.0034441513 -0.008314916 0.060000002
 endloop
endfacet
facet normal -0 0 1
 outer loop
  vertex -0.0032986407 -0.0061713215 0.060000002
  vertex -0.0038876524 -0.005818282 0.060000002
  vertex -0.0050001326 -0.0074832267 0.060000002
 endloop
endfacet
facet normal 0 -0 1
 outer loop
  vertex -0.0032986407 -0.0061713215 0.060000002
  vertex -0.0050001326 -0.0074832267 0.060000002
  vertex -0.004242571 -0.007937292 0.060000002
 endloop
endfacet
facet normal -0 0 1
 outer loop
  vertex -0.0038876524 -0.005818282 0.060000002
  vertex -0.0044392236 -0.005409209 0.060000002
  vertex -0.0057095406 -0.006957094 0.060000002
 endloop
endfacet
facet normal 0 -0 1
 outer loop
  vertex -0.0038876524 -0.005818282 0.060000002
  vertex -0.0057095406 -0.006957094 0.060000002
  vertex -0.0050001326 -0.0074832267 0.060000002
 endloop
endfacet
facet normal -0 0 1
 outer loop
  vertex -0.0044392236 -0.005409209 0.060000002
  vertex -0.0049480423 -0.0049480423 0.060000002
  vertex -0.0063639614 -0.0063639614 0.060000002
 endloop
endfacet
facet normal 0 -0 1
 outer loop
  vertex -0.0044392236 -0.005409209 0.060000002
  vertex -0.0063639614 -0.0063639614 0.060000002
  vertex -0.0057095406 -0.006957094 0.060000002
 endloop
endfacet
facet normal -0 0 1
 outer loop
  vertex -0.0049480423 -0.0049480423 0.060000002
  vertex -0.005409209 -0.0044392236 0.060000002
  vertex -0.006957094 -0.0057095406 0.060000002
 endloop
endfacet
facet normal 0 -0 1
 outer loop
  vertex -0.0049480423 -0.0049480423 0.060000002
  vertex -0.006957094 -0.0057095406 0.060000002
  vertex -0.0063639614 -0.0063639614 0.060000002
 endloop
endfacet
facet normal -0 0 1
 outer loop
  vertex -0.005409209 -0.0044392236 0.060000002
  vertex -0.005818282 -0.0038876524 0.060000002
  vertex -0.0074832267 -0.0050001326 0.060000002
 endloop
endfacet
facet normal 0 -0 1
 outer loop
  vertex -0.005409209 -0.0044392236 0.060000002
  vertex -0.0074832267 -0.0050001326 0.060000002
  vertex -0.006957094 -0.0057095406 0.060000002
 endloop
endfacet
facet normal -0 0 1
 outer loop
  vertex -0.005818282 -0.0038876524 0.060000002
  vertex -0.0061713215 -0.0032986407 0.060000002
  vertex -0.007937292 -0.004242571 0.060000002
 endloop
endfacet
facet normal 0 -0 1
 outer loop
  vertex -0.005818282 -0.0038876524 0.060000002
  vertex -0.007937292 -0.004242571 0.060000002
  vertex -0.0074832267 -0.0050001326 0.060000002
 endloop
endfacet
facet normal -0 0 1
 outer loop
  vertex -0.0061713215 -0.0032986407 0.060000002
  vertex -0.0064649284 -0.0026778614 0.060000002
  vertex -0.008314916 -0.0034441513 0.060000002
 endloop
endfacet
facet normal 0 -0 1
 outer loop
  vertex -0.0061713215 -0.0032986407 0.060000002
  vertex -0.008314916 -0.0034441513 0.060000002
  vertex -0.007937292 -0.004242571 0.060000002
 endloop
endfacet
facet normal -0 0 1
 outer loop
  vertex -0.0064649284 -0.0026778614 0.060000002
  vertex -0.0066962745 -0.0020312928 0.060000002
  vertex -0.008612463 -0.0026125624 0.060000002
 endloop
endfacet
facet normal -0 -0 1
 outer loop
  vertex -0.0064649284 -0.0026778614 0.060000002
  vertex -0.008612463 -0.0026125624 0.060000002
  vertex -0.008314916 -0.0034441513 0.060000002
 endloop
endfacet
facet normal -0 0 1
 outer loop
  vertex -0.0066962745 -0.0020312928 0.060000002
  vertex -0.0068631317 -0.0013651613 0.060000002
  vertex -0.008827068 -0.001755813 0.060000002
 endloop
endfacet
facet normal -0 -0 1
 outer loop
  vertex -0.0066962745 -0.0020312928 0.060000002
  vertex -0.008827068 -0.001755813 0.060000002
  vertex -0.008612463 -0.0026125624 0.060000002
 endloop
endfacet
facet normal -0 0 1
 outer loop
  vertex -0.0068631317 -0.0013651613 0.060000002
  vertex -0.0069638933 -0.00068588345 0.060000002
  vertex -0.008956663 -0.00088215433 0.060000002
 endloop
endfacet
facet normal -0 -0 1
 outer loop
  vertex -0.0068631317 -0.0013651613 0.060000002
  vertex -0.008956663 -0.00088215433 0.060000002
  vertex -0.008827068 -0.001755813 0.060000002
 endloop
endfacet
facet normal -0 0 1
 outer loop
  vertex -0.0069638933 -0.00068588345 0.060000002
  vertex -0.006997588 0 0.060000002
  vertex -0.009000001 0 0.060000002
 endloop
endfacet
facet normal -0 -0 1
 outer loop
  vertex -0.0069638933 -0.00068588345 0.060000002
  vertex -0.009000001 0 0.060000002
  vertex -0.008956663 -0.00088215433 0.060000002
 endloop
endfacet
facet normal 0 0 1
 outer loop
  vertex -0.006997588 0 0.060000002
  vertex -0.006963893 0.00068588345 0.060000002
  vertex -0.008956663 0.00088215433 0.060000002
 endloop
endfacet
facet normal -0 0 1
 outer loop
  vertex -0.006997588 0 0.060000002
  vertex -0.008956663 0.00088215433 0.060000002
  vertex -0.009000001 0 0.060000002
 endloop
endfacet
facet normal 0 0 1
 outer loop
  vertex -0.006963893 0.00068588345 0.060000002
  vertex -0.006863132 0.0013651613 0.060000002
  vertex -0.008827068 0.001755813 0.060000002
 endloop
endfacet
facet normal -0 0 1
 outer loop
  vertex -0.006963893 0.00068588345 0.060000002
  vertex -0.008827068 0.001755813 0.060000002
  vertex -0.008956663 0.00088215433 0.060000002
 endloop
endfacet
facet normal 0 0 1
 outer loop
  vertex -0.006863132 0.0013651613 0.060000002
  vertex -0.0066962745 0.0020312928 0.060000002
  vertex -0.008612463 0.0026125624 0.060000002
 endloop
endfacet
facet normal -0 0 1
 outer loop
  vertex -0.006863132 0.0013651613 0.060000002
  vertex -0.008612463 0.0026125624 0.060000002
  vertex -0.008827068 0.001755813 0.060000002
 endloop
endfacet
facet normal 0 0 1
 outer loop
  vertex -0.0066962745 0.0020312928 0.060000002
  vertex -0.0064649284 0.0026778614 0.060000002
  vertex -0.008314916 0.0034441513 0.060000002
 endloop
endfacet
facet normal -0 0 1
 outer loop
  vertex -0.0066962745 0.0020312928 0.060000002
  vertex -0.008314916 0.0034441513 0.060000002
  vertex -0.008612463 0.0026125624 0.060000002
 endloop
endfacet
facet normal 0 0 1
 outer loop
  vertex -0.0064649284 0.0026778614 0.060000002
  vertex -0.0061713215 0.0032986407 0.060000002
  vertex -0.007937292 0.004242571 0.060000002
 endloop
endfacet
facet normal -0 0 1
 outer loop
  vertex -0.0064649284 0.0026778614 0.060000002
  vertex -0.007937292 0.004242571 0.060000002
  vertex -0.008314916 0.0034441513 0.060000002
 endloop
endfacet
facet normal 0 0 1
 outer loop
  vertex -0.0061713215 0.0032986407 0.060000002
  vertex -0.005818282 0.0038876524 0.060000002
  vertex -0.0074832267 0.0050001326 0.060000002
 endloop
endfacet
facet normal -0 0 1
 outer loop
  vertex -0.0061713215 0.0032986407 0.060000002
  vertex -0.0074832267 0.0050001326 0.060000002
  vertex -0.007937292 0.004242571 0.060000002
 endloop
endfacet
facet normal 0 0 1
 outer loop
  vertex -0.005818282 0.0038876524 0.060000002
  vertex -0.005409209 0.0044392236 0.060000002
  vertex -0.006957094 0.0057095406 0.060000002
 endloop
endfacet
facet normal -0 0 1
 outer loop
  vertex -0.005818282 0.0038876524 0.060000002
  vertex -0.006957094 0.0057095406 0.060000002
  vertex -0.0074832267 0.0050001326 0.060000002
 endloop
endfacet
facet normal 0 0 1
 outer loop
  vertex -0.005409209 0.0044392236 0.060000002
  vertex -0.0049480423 0.0049480423 0.060000002
  vertex -0.0063639614 0.0063639614 0.060000002
 endloop
endfacet
facet normal -0 0 1
 outer loop
  vertex -0.005409209 0.0044392236 0.060000002
  vertex -0.0063639614 0.0063639614 0.060000002
  vertex -0.006957094 0.0057095406 0.060000002
 endloop
endfacet
facet normal 0 0 1
 outer loop
  vertex -0.0049480423 0.0049480423 0.060000002
  vertex -0.0044392236 0.005409209 0.060000002
  vertex -0.0057095406 0.006957094 0.060000002
 endloop
endfacet
facet normal -0 0 1
 outer loop
  vertex -0.0049480423 0.0049480423 0.060000002
  vertex -0.0057095406 0.006957094 0.060000002
  vertex -0.0063639614 0.0063639614 0.060000002
 endloop
endfacet
facet normal 0 0 1
 outer loop
  vertex -0.0044392236 0.005409209 0.060000002
  vertex -0.0038876524 0.005818282 0.060000002
  vertex -0.0050001326 0.0074832267 0.060000002
 endloop
endfacet
facet normal -0 0 1
 outer loop
  vertex -0.0044392236 0.005409209 0.060000002
  vertex -0.0050001326 0.0074832267 0.060000002
  vertex -0.0057095406 0.006957094 0.060000002
 endloop
endfacet
facet normal 0 0 1
 outer loop
  vertex -0.0038876524 0.005818282 0.060000002
  vertex -0.0032986407 0.0061713215 0.060000002
  vertex -0.004242571 0.007937292 0.060000002
 endloop
endfacet
facet normal -0 0 1
 outer loop
  vertex -0.0038876524 0.005818282 0.060000002
  vertex -0.004242571 0.007937292 0.060000002
  vertex -0.0050001326 0.0074832267 0.060000002
 endloop
endfacet
facet normal 0 0 1
 outer loop
  vertex -0.0032986407 0.0061713215 0.060000002
  vertex -0.0026778614 0.0064649284 0.060000002
  vertex -0.0034441513 0.008314916 0.060000002
 endloop
endfacet
facet normal -0 0 1
 outer loop
  vertex -0.0032986407 0.0061713215 0.060000002
  vertex -0.0034441513 0.008314916 0.060000002
  vertex -0.004242571 0.007937292 0.060000002
 endloop
endfacet
facet normal 0 0 1
 outer loop
  vertex -0.0026778614 0.0064649284 0.060000002
  vertex -0.0020312928 0.0066962745 0.060000002
  vertex -0.0026125624 0.008612463 0.060000002
 endloop
endfacet
facet normal -0 0 1
 outer loop
  vertex -0.0026778614 0.0064649284 0.060000002
  vertex -0.0026125624 0.008612463 0.060000002
  vertex -0.0034441513 0.008314916 0.060000002
 endloop
endfacet
facet normal 0 0 1
 outer loop
  vertex -0.0020312928 0.0066962745 0.060000002
  vertex -0.0013651613 0.0068631317 0.060000002
  vertex -0.001755813 0.008827068 0.060000002
 endloop
endfacet
facet normal -0 0 1
 outer loop
  vertex -0.0020312928 0.0066962745 0.060000002
  vertex -0.001755813 0.008827068 0.060000002
  vertex -0.0026125624 0.008612463 0.060000002
 endloop
endfacet
facet normal 0 0 1
 outer loop
  vertex -0.0013651613 0.0068631317 0.060000002
  vertex -0.00068588345 0.0069638933 0.060000002
  vertex -0.00088215433 0.008956663 0.060000002
 endloop
endfacet
facet normal -0 0 1
 outer loop
  vertex -0.0013651613 0.0068631317 0.060000002
  vertex -0.00088215433 0.008956663 0.060000002
  vertex -0.001755813 0.008827068 0.060000002
 endloop
endfacet
facet normal 0 0 1
 outer loop
  vertex -0.00068588345 0.0069638933 0.060000002
  vertex 0 0.006997588 0.060000002
  vertex 0 0.009000001 0.060000002
 endloop
endfacet
facet normal -0 0 1
 outer loop
  vertex -0.00068588345 0.0069638933 0.060000002
  vertex 0 0.009000001 0.060000002
  vertex -0.00088215433 0.008956663 0.060000002
 endloop
endfacet
facet normal 0 0 -1
 outer loop
  vertex 0.00068588345 0.006963893 0
  vertex 0 0.006997588 0
  vertex 0 0.009000001 0
 endloop
endfacet
facet normal -0 -0 -1
 outer loop
  vertex 0.00068588345 0.006963893 0
  vertex 0 0.009000001 0
  vertex 0.00088215433 0.008956663 0
 endloop
endfacet
facet normal 0 -0 -1
 outer loop
  vertex 0.0013651613 0.006863132 0
  vertex 0.00068588345 0.006963893 0
  vertex 0.00088215433 0.008956663 0
 endloop
endfacet
facet normal -0 -0 -1
 outer loop
  vertex 0.0013651613 0.006863132 0
  vertex 0.00088215433 0.008956663 0
  vertex 0.001755813 0.008827068 0
 endloop
endfacet
facet normal 0 -0 -1
 outer loop
  vertex 0.0020312928 0.0066962745 0
  vertex 0.0013651613 0.006863132 0
  vertex 0.001755813 0.008827068 0
 endloop
endfacet
facet normal -0 -0 -1
 outer loop
  vertex 0.0020312928 0.0066962745 0
  vertex 0.001755813 0.008827068 0
  vertex 0.0026125624 0.008612463 0
 endloop
endfacet
facet normal 0 -0 -1
 outer loop
  vertex 0.0026778614 0.0064649284 0
  vertex 0.0020312928 0.0066962745 0
  vertex 0.0026125624 0.008612463 0
 endloop
endfacet
facet normal -0 -0 -1
 outer loop
  vertex 0.0026778614 0.0064649284 0
  vertex 0.0026125624 0.008612463 0
  vertex 0.0034441513 0.008314916 0
 endloop
endfacet
facet normal 0 -0 -1
 outer loop
  vertex 0.0032986407 0.0061713215 0
  vertex 0.0026778614 0.0064649284 0
  vertex 0.0034441513 0.008314916 0
 endloop
endfacet
facet normal -0 0 -1
 outer loop
  vertex 0.0032986407 0.0061713215 0
  vertex 0.0034441513 0.008314916 0
  vertex 0.004242571 0.007937292 0
 endloop
endfacet
facet normal 0 -0 -1
 outer loop
  vertex 0.0038876524 0.005818282 0
  vertex 0.0032986407 0.0061713215 0
  vertex 0.004242571 0.007937292 0
 endloop
endfacet
facet normal -0 0 -1
 outer loop
  vertex 0.0038876524 0.005818282 0
  vertex 0.004242571 0.007937292 0
  vertex 0.0050001326 0.0074832267 0
 endloop
endfacet
facet normal 0 -0 -1
 outer loop
  vertex 0.0044392236 0.005409209 0
  vertex 0.0038876524 0.005818282 0
  vertex 0.0050001326 0.0074832267 0
 endloop
endfacet
facet normal -0 0 -1
 outer loop
  vertex 0.0044392236 0.005409209 0
  vertex 0.0050001326 0.0074832267 0
  vertex 0.0057095406 0.006957094 0
 endloop
endfacet
facet normal 0 -0 -1
 outer loop
  vertex 0.0049480423 0.0049480423 0
  vertex 0.0044392236 0.005409209 0
  vertex 0.0057095406 0.006957094 0
 endloop
endfacet
facet normal -0 0 -1
 outer loop
  vertex 0.0049480423 0.0049480423 0
  vertex 0.0057095406 0.006957094 0
  vertex 0.0063639614 0.0063639614 0
 endloop
endfacet
facet normal 0 -0 -1
 outer loop
  vertex 0.005409209 0.0044392236 0
  vertex 0.0049480423 0.0049480423 0
  vertex 0.0063639614 0.0063639614 0
 endloop
endfacet
facet normal -0 0 -1
 outer loop
  vertex 0.005409209 0.0044392236 0
  vertex 0.0063639614 0.0063639614 0
  vertex 0.006957094 0.0057095406 0
 endloop
endfacet
facet normal 0 -0 -1
 outer loop
  vertex 0.005818282 0.0038876524 0
  vertex 0.005409209 0.0044392236 0
  vertex 0.006957094 0.0057095406 0
 endloop
endfacet
facet normal -0 0 -1
 outer loop
  vertex 0.005818282 0.0038876524 0
  vertex 0.006957094 0.0057095406 0
  vertex 0.0074832267 0.0050001326 0
 endloop
endfacet
facet normal 0 -0 -1
 outer loop
  vertex 0.0061713215 0.0032986407 0
  vertex 0.005818282 0.0038876524 0
  vertex 0.0074832267 0.0050001326 0
 endloop
endfacet
facet normal -0 0 -1
 outer loop
  vertex 0.0061713215 0.0032986407 0
  vertex 0.0074832267 0.0050001326 0
  vertex 0.007937292 0.004242571 0
 endloop
endfacet
facet normal 0 -0 -1
 outer loop
  vertex 0.0064649284 0.0026778614 0
  vertex 0.0061713215 0.0032986407 0
  vertex 0.007937292 0.004242571 0
 endloop
endfacet
facet normal -0 0 -1
 outer loop
  vertex 0.0064649284 0.0026778614 0
  vertex 0.007937292 0.004242571 0
  vertex 0.008314916 0.0034441513 0
 endloop
endfacet
facet normal 0 -0 -1
 outer loop
  vertex 0.0066962745 0.0020312928 0
  vertex 0.0064649284 0.0026778614 0
  vertex 0.008314916 0.0034441513 0
 endloop
endfacet
facet normal -0 0 -1
 outer loop
  vertex 0.0066962745 0.0020312928 0
  vertex 0.008314916 0.0034441513 0
  vertex 0.008612463 0.0026125624 0
 endloop
endfacet
facet normal 0 -0 -1
 outer loop
  vertex 0.0068631317 0.0013651613 0
  vertex 0.0066962745 0.0020312928 0
  vertex 0.008612463 0.0026125624 0
 endloop
endfacet
facet normal -0 0 -1
 outer loop
  vertex 0.0068631317 0.0013651613 0
  vertex 0.008612463 0.0026125624 0
  vertex 0.008827068 0.001755813 0
 endloop
endfacet
facet normal 0 -0 -1
 outer loop
  vertex 0.0069638933 0.00068588345 0
  vertex 0.0068631317 0.0013651613 0
  vertex 0.008827068 0.001755813 0
 endloop
endfacet
facet normal -0 0 -1
 outer loop
  vertex 0.0069638933 0.00068588345 0
  vertex 0.008827068 0.001755813 0
  vertex 0.008956663 0.00088215433 0
 endloop
endfacet
facet normal 0 -0 -1
 outer loop
  vertex 0.006997588 0 0
  vertex 0.0069638933 0.00068588345 0
  vertex 0.008956663 0.00088215433 0
 endloop
endfacet
facet normal -0 0 -1
 outer loop
  vertex 0.006997588 0 0
  vertex 0.008956663 0.00088215433 0
  vertex 0.009000001 0 0
 endloop
endfacet
facet normal -0 0 -1
 outer loop
  vertex 0.006963893 -0.00068588345 0
  vertex 0.006997588 0 0
  vertex 0.009000001 0 0
 endloop
endfacet
facet normal -0 0 -1
 outer loop
  vertex 0.006963893 -0.00068588345 0
  vertex 0.009000001 0 0
  vertex 0.008956663 -0.00088215433 0
 endloop
endfacet
facet normal -0 0 -1
 outer loop
  vertex 0.006863132 -0.0013651613 0
  vertex 0.006963893 -0.00068588345 0
  vertex 0.008956663 -0.00088215433 0
 endloop
endfacet
facet normal -0 0 -1
 outer loop
  vertex 0.006863132 -0.0013651613 0
  vertex 0.008956663 -0.00088215433 0
  vertex 0.008827068 -0.001755813 0
 endloop
endfacet
facet normal -0 0 -1
 outer loop
  vertex 0.0066962745 -0.0020312928 0
  vertex 0.006863132 -0.0013651613 0
  vertex 0.008827068 -0.001755813 0
 endloop
endfacet
facet normal -0 0 -1
 outer loop
  vertex 0.0066962745 -0.0020312928 0
  vertex 0.008827068 -0.001755813 0
  vertex 0.008612463 -0.0026125624 0
 endloop
endfacet
facet normal -0 0 -1
 outer loop
  vertex 0.0064649284 -0.0026778614 0
  vertex 0.0066962745 -0.0020312928 0
  vertex 0.008612463 -0.0026125624 0
 endloop
endfacet
facet normal -0 0 -1
 outer loop
  vertex 0.0064649284 -0.0026778614 0
  vertex 0.008612463 -0.0026125624 0
  vertex 0.008314916 -0.0034441513 0
 endloop
endfacet
facet normal -0 0 -1
 outer loop
  vertex 0.0061713215 -0.0032986407 0
  vertex 0.0064649284 -0.0026778614 0
  vertex 0.008314916 -0.0034441513 0
 endloop
endfacet
facet normal 0 0 -1
 outer loop
  vertex 0.0061713215 -0.0032986407 0
  vertex 0.008314916 -0.0034441513 0
  vertex 0.007937292 -0.004242571 0
 endloop
endfacet
facet normal -0 0 -1
 outer loop
  vertex 0.005818282 -0.0038876524 0
  vertex 0.0061713215 -0.0032986407 0
  vertex 0.007937292 -0.004242571 0
 endloop
endfacet
facet normal 0 0 -1
 outer loop
  vertex 0.005818282 -0.0038876524 0
  vertex 0.007937292 -0.004242571 0
  vertex 0.0074832267 -0.0050001326 0
 endloop
endfacet
facet normal -0 0 -1
 outer loop
  vertex 0.005409209 -0.0044392236 0
  vertex 0.005818282 -0.0038876524 0
  vertex 0.0074832267 -0.0050001326 0
 endloop
endfacet
facet normal 0 0 -1
 outer loop
  vertex 0.005409209 -0.0044392236 0
  vertex 0.0074832267 -0.0050001326 0
  vertex 0.006957094 -0.0057095406 0
 endloop
endfacet
facet normal -0 0 -1
 outer loop
  vertex 0.0049480423 -0.0049480423 0
  vertex 0.005409209 -0.0044392236 0
  vertex 0.006957094 -0.0057095406 0
 endloop
endfacet
facet normal 0 0 -1
 outer loop
  vertex 0.0049480423 -0.0049480423 0
  vertex 0.006957094 -0.0057095406 0
  vertex 0.0063639614 -0.0063639614 0
 endloop
endfacet
facet normal -0 0 -1
 outer loop
  vertex 0.0044392236 -0.005409209 0
  vertex 0.0049480423 -0.0049480423 0
  vertex 0.0063639614 -0.0063639614 0
 endloop
endfacet
facet normal 0 0 -1
 outer loop
  vertex 0.0044392236 -0.005409209 0
  vertex 0.0063639614 -0.0063639614 0
  vertex 0.0057095406 -0.006957094 0
 endloop
endfacet
facet normal -0 0 -1
 outer loop
  vertex 0.0038876524 -0.005818282 0
  vertex 0.0044392236 -0.005409209 0
  vertex 0.0057095406 -0.006957094 0
 endloop
endfacet
facet normal 0 0 -1
 outer loop
  vertex 0.0038876524 -0.005818282 0
  vertex 0.0057095406 -0.006957094 0
  vertex 0.0050001326 -0.0074832267 0
 endloop
endfacet
facet normal -0 0 -1
 outer loop
  vertex 0.0032986407 -0.0061713215 0
  vertex 0.0038876524 -0.005818282 0
  vertex 0.0050001326 -0.0074832267 0
 endloop
endfacet
facet normal 0 0 -1
 outer loop
  vertex 0.0032986407 -0.0061713215 0
  vertex 0.0050001326 -0.0074832267 0
  vertex 0.004242571 -0.007937292 0
 endloop
endfacet
facet normal -0 0 -1
 outer loop
  vertex 0.0026778614 -0.0064649284 0
  vertex 0.0032986407 -0.0061713215 0
  vertex 0.004242571 -0.007937292 0
 endloop
endfacet
facet normal 0 0 -1
 outer loop
  vertex 0.0026778614 -0.0064649284 0
  vertex 0.004242571 -0.007937292 0
  vertex 0.0034441513 -0.008314916 0
 endloop
endfacet
facet normal -0 0 -1
 outer loop
  vertex 0.0020312928 -0.0066962745 0
  vertex 0.0026778614 -0.0064649284 0
  vertex 0.0034441513 -0.008314916 0
 endloop
endfacet
facet normal 0 0 -1
 outer loop
  vertex 0.0020312928 -0.0066962745 0
  vertex 0.0034441513 -0.008314916 0
  vertex 0.0026125624 -0.008612463 0
 endloop
endfacet
facet normal -0 0 -1
 outer loop
  vertex 0.0013651613 -0.0068631317 0
  vertex 0.0020312928 -0.0066962745 0
  vertex 0.0026125624 -0.008612463 0
 endloop
endfacet
facet normal 0 0 -1
 outer loop
  vertex 0.0013651613 -0.0068631317 0
  vertex 0.0026125624 -0.008612463 0
  vertex 0.001755813 -0.008827068 0
 endloop
endfacet
facet normal -0 0 -1
 outer loop
  vertex 0.00068588345 -0.0069638933 0
  vertex 0.0013651613 -0.0068631317 0
  vertex 0.001755813 -0.008827068 0
 endloop
endfacet
facet normal 0 0 -1
 outer loop
  vertex 0.00068588345 -0.0069638933 0
  vertex 0.001755813 -0.008827068 0
  vertex 0.00088215433 -0.008956663 0
 endloop
endfacet
facet normal -0 0 -1
 outer loop
  vertex 0 -0.006997588 0
  vertex 0.00068588345 -0.0069638933 0
  vertex 0.00088215433 -0.008956663 0
 endloop
endfacet
facet normal 0 0 -1
 outer loop
  vertex 0 -0.006997588 0
  vertex 0.00088215433 -0.008956663 0
  vertex 0 -0.009000001 0
 endloop
endfacet
facet normal 0 0 -1
 outer loop
  vertex -0.00068588345 -0.006963893 0
  vertex 0 -0.006997588 0
  vertex 0 -0.009000001 0
 endloop
endfacet
facet normal 0 0 -1
 outer loop
  vertex -0.00068588345 -0.006963893 0
  vertex 0 -0.009000001 0
  vertex -0.00088215433 -0.008956663 0
 endloop
endfacet
facet normal 0 0 -1
 outer loop
  vertex -0.0013651613 -0.006863132 0
  vertex -0.00068588345 -0.006963893 0
  vertex -0.00088215433 -0.008956663 0
 endloop
endfacet
facet normal 0 0 -1
 outer loop
  vertex -0.0013651613 -0.006863132 0
  vertex -0.00088215433 -0.008956663 0
  vertex -0.001755813 -0.008827068 0
 endloop
endfacet
facet normal 0 0 -1
 outer loop
  vertex -0.0020312928 -0.0066962745 0
  vertex -0.0013651613 -0.006863132 0
  vertex -0.001755813 -0.008827068 0
 endloop
endfacet
facet normal 0 0 -1
 outer loop
  vertex -0.0020312928 -0.0066962745 0
  vertex -0.001755813 -0.008827068 0
  vertex -0.0026125624 -0.008612463 0
 endloop
endfacet
facet normal 0 0 -1
 outer loop
  vertex -0.0026778614 -0.0064649284 0
  vertex -0.0020312928 -0.0066962745 0
  vertex -0.0026125624 -0.008612463 0
 endloop
endfacet
facet normal 0 0 -1
 outer loop
  vertex -0.0026778614 -0.0064649284 0
  vertex -0.0026125624 -0.008612463 0
  vertex -0.0034441513 -0.008314916 0
 endloop
endfacet
facet normal 0 0 -1
 outer loop
  vertex -0.0032986407 -0.0061713215 0
  vertex -0.0026778614 -0.0064649284 0
  vertex -0.0034441513 -0.008314916 0
 endloop
endfacet
facet normal 0 0 -1
 outer loop
  vertex -0.0032986407 -0.0061713215 0
  vertex -0.0034441513 -0.008314916 0
  vertex -0.004242571 -0.007937292 0
 endloop
endfacet
facet normal 0 0 -1
 outer loop
  vertex -0.0038876524 -0.005818282 0
  vertex -0.0032986407 -0.0061713215 0
  vertex -0.004242571 -0.007937292 0
 endloop
endfacet
facet normal 0 0 -1
 outer loop
  vertex -0.0038876524 -0.005818282 0
  vertex -0.004242571 -0.007937292 0
  vertex -0.0050001326 -0.0074832267 0
 endloop
endfacet
facet normal 0 0 -1
 outer loop
  vertex -0.0044392236 -0.005409209 0
  vertex -0.0038876524 -0.005818282 0
  vertex -0.0050001326 -0.0074832267 0
 endloop
endfacet
facet normal 0 0 -1
 outer loop
  vertex -0.0044392236 -0.005409209 0
  vertex -0.0050001326 -0.0074832267 0
  vertex -0.0057095406 -0.006957094 0
 endloop
endfacet
facet normal 0 0 -1
 outer loop
  vertex -0.0049480423 -0.0049480423 0
  vertex -0.0044392236 -0.005409209 0
  vertex -0.0057095406 -0.006957094 0
 endloop
endfacet
facet normal 0 0 -1
 outer loop
  vertex -0.0049480423 -0.0049480423 0
  vertex -0.0057095406 -0.006957094 0
  vertex -0.0063639614 -0.0063639614 0
 endloop
endfacet
facet normal 0 0 -1
 outer loop
  vertex -0.005409209 -0.0044392236 0
  vertex -0.0049480423 -0.0049480423 0
  vertex -0.0063639614 -0.0063639614 0
 endloop
endfacet
facet normal 0 0 -1
 outer loop
  vertex -0.005409209 -0.0044392236 0
  vertex -0.0063639614 -0.0063639614 0
  vertex -0.006957094 -0.0057095406 0
 endloop
endfacet
facet normal 0 0 -1
 outer loop
  vertex -0.005818282 -0.0038876524 0
  vertex -0.005409209 -0.0044392236 0
  vertex -0.006957094 -0.0057095406 0
 endloop
endfacet
facet normal 0 0 -1
 outer loop
  vertex -0.005818282 -0.0038876524 0
  vertex -0.006957094 -0.0057095406 0
  vertex -0.0074832267 -0.0050001326 0
 endloop
endfacet
facet normal 0 0 -1
 outer loop
  vertex -0.0061713215 -0.0032986407 0
  vertex -0.005818282 -0.0038876524 0
  vertex -0.0074832267 -0.0050001326 0
 endloop
endfacet
facet normal 0 0 -1
 outer loop
  vertex -0.0061713215 -0.0032986407 0
  vertex -0.0074832267 -0.0050001326 0
  vertex -0.007937292 -0.004242571 0
 endloop
endfacet
facet normal 0 0 -1
 outer loop
  vertex -0.0064649284 -0.0026778614 0
  vertex -0.0061713215 -0.0032986407 0
  vertex -0.007937292 -0.004242571 0
 endloop
endfacet
facet normal 0 0 -1
 outer loop
  vertex -0.0064649284 -0.0026778614 0
  vertex -0.007937292 -0.004242571 0
  vertex -0.008314916 -0.0034441513 0
 endloop
endfacet
facet normal 0 0 -1
 outer loop
  vertex -0.0066962745 -0.0020312928 0
  vertex -0.0064649284 -0.0026778614 0
  vertex -0.008314916 -0.0034441513 0
 endloop
endfacet
facet normal 0 0 -1
 outer loop
  vertex -0.0066962745 -0.0020312928 0
  vertex -0.008314916 -0.0034441513 0
  vertex -0.008612463 -0.0026125624 0
 endloop
endfacet
facet normal 0 0 -1
 outer loop
  vertex -0.0068631317 -0.0013651613 0
  vertex -0.0066962745 -0.0020312928 0
  vertex -0.008612463 -0.0026125624 0
 endloop
endfacet
facet normal 0 0 -1
 outer loop
  vertex -0.0068631317 -0.0013651613 0
  vertex -0.008612463 -0.0026125624 0
  vertex -0.008827068 -0.001755813 0
 endloop
endfacet
facet normal 0 0 -1
 outer loop
  vertex -0.0069638933 -0.00068588345 0
  vertex -0.0068631317 -0.0013651613 0
  vertex -0.008827068 -0.001755813 0
 endloop
endfacet
facet normal 0 0 -1
 outer loop
  vertex -0.0069638933 -0.00068588345 0
  vertex -0.008827068 -0.001755813 0
  vertex -0.008956663 -0.00088215433 0
 endloop
endfacet
facet normal 0 0 -1
 outer loop
  vertex -0.006997588 0 0
  vertex -0.0069638933 -0.00068588345 0
  vertex -0.008956663 -0.00088215433 0
 endloop
endfacet
facet normal 0 0 -1
 outer loop
  vertex -0.006997588 0 0
  vertex -0.008956663 -0.00088215433 0
  vertex -0.009000001 0 0
 endloop
endfacet
facet normal 0 0 -1
 outer loop
  vertex -0.006963893 0.00068588345 0
  vertex -0.006997588 0 0
  vertex -0.009000001 0 0
 endloop
endfacet
facet normal 0 -0 -1
 outer loop
  vertex -0.006963893 0.00068588345 0
  vertex -0.009000001 0 0
  vertex -0.008956663 0.00088215433 0
 endloop
endfacet
facet normal 0 0 -1
 outer loop
  vertex -0.006863132 0.0013651613 0
  vertex -0.006963893 0.00068588345 0
  vertex -0.008956663 0.00088215433 0
 endloop
endfacet
facet normal 0 -0 -1
 outer loop
  vertex -0.006863132 0.0013651613 0
  vertex -0.008956663 0.00088215433 0
  vertex -0.008827068 0.001755813 0
 endloop
endfacet
facet normal 0 0 -1
 outer loop
  vertex -0.0066962745 0.0020312928 0
  vertex -0.006863132 0.0013651613 0
  vertex -0.008827068 0.001755813 0
 endloop
endfacet
facet normal 0 -0 -1
 outer loop
  vertex -0.0066962745 0.0020312928 0
  vertex -0.008827068 0.001755813 0
  vertex -0.008612463 0.0026125624 0
 endloop
endfacet
facet normal 0 0 -1
 outer loop
  vertex -0.0064649284 0.0026778614 0
  vertex -0.0066962745 0.0020312928 0
  vertex -0.008612463 0.0026125624 0
 endloop
endfacet
facet normal 0 -0 -1
 outer loop
  vertex -0.0064649284 0.0026778614 0
  vertex -0.008612463 0.0026125624 0
  vertex -0.008314916 0.0034441513 0
 endloop
endfacet
facet normal 0 0 -1
 outer loop
  vertex -0.0061713215 0.0032986407 0
  vertex -0.0064649284 0.0026778614 0
  vertex -0.008314916 0.0034441513 0
 endloop
endfacet
facet normal 0 -0 -1
 outer loop
  vertex -0.0061713215 0.0032986407 0
  vertex -0.008314916 0.0034441513 0
  vertex -0.007937292 0.004242571 0
 endloop
endfacet
facet normal 0 0 -1
 outer loop
  vertex -0.005818282 0.0038876524 0
  vertex -0.0061713215 0.0032986407 0
  vertex -0.007937292 0.004242571 0
 endloop
endfacet
facet normal 0 -0 -1
 outer loop
  vertex -0.005818282 0.0038876524 0
  vertex -0.007937292 0.004242571 0
  vertex -0.0074832267 0.0050001326 0
 endloop
endfacet
facet normal 0 0 -1
 outer loop
  vertex -0.005409209 0.0044392236 0
  vertex -0.005818282 0.0038876524 0
  vertex -0.0074832267 0.0050001326 0
 endloop
endfacet
facet normal 0 -0 -1
 outer loop
  vertex -0.005409209 0.0044392236 0
  vertex -0.0074832267 0.0050001326 0
  vertex -0.006957094 0.0057095406 0
 endloop
endfacet
facet normal 0 0 -1
 outer loop
  vertex -0.0049480423 0.0049480423 0
  vertex -0.005409209 0.0044392236 0
  vertex -0.006957094 0.0057095406 0
 endloop
endfacet
facet normal 0 -0 -1
 outer loop
  vertex -0.0049480423 0.0049480423 0
  vertex -0.006957094 0.0057095406 0
  vertex -0.0063639614 0.0063639614 0
 endloop
endfacet
facet normal 0 0 -1
 outer loop
  vertex -0.0044392236 0.005409209 0
  vertex -0.0049480423 0.0049480423 0
  vertex -0.0063639614 0.0063639614 0
 endloop
endfacet
facet normal 0 -0 -1
 outer loop
  vertex -0.0044392236 0.005409209 0
  vertex -0.0063639614 0.0063639614 0
  vertex -0.0057095406 0.006957094 0
 endloop
endfacet
facet normal 0 0 -1
 outer loop
  vertex -0.0038876524 0.005818282 0
  vertex -0.0044392236 0.005409209 0
  vertex -0.0057095406 0.006957094 0
 endloop
endfacet
facet normal 0 -0 -1
 outer loop
  vertex -0.0038876524 0.005818282 0
  vertex -0.0057095406 0.006957094 0
  vertex -0.0050001326 0.0074832267 0
 endloop
endfacet
facet normal 0 0 -1
 outer loop
  vertex -0.0032986407 0.0061713215 0
  vertex -0.0038876524 0.005818282 0
  vertex -0.0050001326 0.0074832267 0
 endloop
endfacet
facet normal 0 -0 -1
 outer loop
  vertex -0.0032986407 0.0061713215 0
  vertex -0.0050001326 0.0074832267 0
  vertex -0.004242571 0.007937292 0
 endloop
endfacet
facet normal 0 0 -1
 outer loop
  vertex -0.0026778614 0.0064649284 0
  vertex -0.0032986407 0.0061713215 0
  vertex -0.004242571 0.007937292 0
 endloop
endfacet
facet normal 0 -0 -1
 outer loop
  vertex -0.0026778614 0.0064649284 0
  vertex -0.004242571 0.007937292 0
  vertex -0.0034441513 0.008314916 0
 endloop
endfacet
facet normal 0 0 -1
 outer loop
  vertex -0.0020312928 0.0066962745 0
  vertex -0.0026778614 0.0064649284 0
  vertex -0.0034441513 0.008314916 0
 endloop
endfacet
facet normal 0 -0 -1
 outer loop
  vertex -0.0020312928 0.0066962745 0
  vertex -0.0034441513 0.008314916 0
  vertex -0.0026125624 0.008612463 0
 endloop
endfacet
facet normal 0 0 -1
 outer loop
  vertex -0.0013651613 0.0068631317 0
  vertex -0.0020312928 0.0066962745 0
  vertex -0.0026125624 0.008612463 0
 endloop
endfacet
facet normal 0 -0 -1
 outer loop
  vertex -0.0013651613 0.0068631317 0
  vertex -0.0026125624 0.008612463 0
  vertex -0.001755813 0.008827068 0
 endloop
endfacet
facet normal 0 0 -1
 outer loop
  vertex -0.00068588345 0.0069638933 0
  vertex -0.0013651613 0.0068631317 0
  vertex -0.001755813 0.008827068 0
 endloop
endfacet
facet normal 0 -0 -1
 outer loop
  vertex -0.00068588345 0.0069638933 0
  vertex -0.001755813 0.008827068 0
  vertex -0.00088215433 0.008956663 0
 endloop
endfacet
facet normal 0 0 -1
 outer loop
  vertex 0 0.006997588 0
  vertex -0.00068588345 0.0069638933 0
  vertex -0.00088215433 0.008956663 0
 endloop
endfacet
facet normal 0 -0 -1
 outer loop
  vertex 0 0.006997588 0
  vertex -0.00088215433 0.008956663 0
  vertex 0 0.009000001 0
 endloop
endfacet
endsolid cylinder
solid posTab
facet normal 0 0 1
 outer loop
  vertex 0.0013651613 0.006863132 0.060000002
  vertex 0.00068588345 0.006963893 0.060000002
  vertex 0 0.006997588 0.060000002
 endloop
endfacet
facet normal 0 0 1
 outer loop
  vertex 0 0.006997588 0.060000002
  vertex -0.00068588345 0.0069638933 0.060000002
  vertex -0.0013651613 0.0068631317 0.060000002
 endloop
endfacet
facet normal 0 0 1
 outer loop
  vertex -0.0013651613 0.0068631317 0.060000002
  vertex -0.0020312928 0.0066962745 0.060000002
  vertex -0.0026778614 0.0064649284 0.060000002
 endloop
endfacet
facet normal 0 0 1
 outer loop
  vertex -0.0026778614 0.0064649284 0.060000002
  vertex -0.0032986407 0.0061713215 0.060000002
  vertex -0.0038876524 0.005818282 0.060000002
 endloop
endfacet
facet normal 0 0 1
 outer loop
  vertex -0.0038876524 0.005818282 0.060000002
  vertex -0.0044392236 0.005409209 0.060000002
  vertex -0.0049480423 0.0049480423 0.060000002
 endloop
endfacet
facet normal 0 0 1
 outer loop
  vertex -0.0049480423 0.0049480423 0.060000002
  vertex -0.005409209 0.0044392236 0.060000002
  vertex -0.005818282 0.0038876524 0.060000002
 endloop
endfacet
facet normal 0 0 1
 outer loop
  vertex -0.005818282 0.0038876524 0.060000002
  vertex -0.0061713215 0.0032986407 0.060000002
  vertex -0.0064649284 0.0026778614 0.060000002
 endloop
endfacet
facet normal 0 0 1
 outer loop
  vertex -0.0064649284 0.0026778614 0.060000002
  vertex -0.0066962745 0.0020312928 0.060000002
  vertex -0.006863132 0.0013651613 0.060000002
 endloop
endfacet
facet normal 0 0 1
 outer loop
  vertex -0.006863132 0.0013651613 0.060000002
  vertex -0.006963893 0.00068588345 0.060000002
  vertex -0.006997588 0 0.060000002
 endloop
endfacet
facet normal 0 0 1
 outer loop
  vertex -0.006997588 0 0.060000002
  vertex -0.0069638933 -0.00068588345 0.060000002
  vertex -0.0068631317 -0.0013651613 0.060000002
 endloop
endfacet
facet normal 0 0 1
 outer loop
  vertex -0.0068631317 -0.0013651613 0.060000002
  vertex -0.0066962745 -0.0020312928 0.060000002
  vertex -0.0064649284 -0.0026778614 0.060000002
 endloop
endfacet
facet normal 0 0 1
 outer loop
  vertex -0.0064649284 -0.0026778614 0.060000002
  vertex -0.0061713215 -0.0032986407 0.060000002
  vertex -0.005818282 -0.0038876524 0.060000002
 endloop
endfacet
facet normal 0 0 1
 outer loop
  vertex -0.005818282 -0.0038876524 0.060000002
  vertex -0.005409209 -0.0044392236 0.060000002
  vertex -0.0049480423 -0.0049480423 0.060000002
 endloop
endfacet
facet normal 0 0 1
 outer loop
  vertex -0.0049480423 -0.0049480423 0.060000002
  vertex -0.0044392236 -0.005409209 0.060000002
  vertex -0.0038876524 -0.005818282 0.060000002
 endloop
endfacet
facet normal 0 0 1
 outer loop
  vertex -0.0038876524 -0.005818282 0.060000002
  vertex -0.0032986407 -0.0061713215 0.060000002
  vertex -0.0026778614 -0.0064649284 0.060000002
 endloop
endfacet
facet normal 0 0 1
 outer loop
  vertex -0.0026778614 -0.0064649284 0.060000002
  vertex -0.0020312928 -0.0066962745 0.060000002
  vertex -0.0013651613 -0.006863132 0.060000002
 endloop
endfacet
facet normal 0 0 1
 outer loop
  vertex -0.0013651613 -0.006863132 0.060000002
  vertex -0.00068588345 -0.006963893 0.060000002
  vertex 0 -0.006997588 0.060000002
 endloop
endfacet
facet normal 0 0 1
 outer loop
  vertex 0 -0.006997588 0.060000002
  vertex 0.00068588345 -0.0069638933 0.060000002
  vertex 0.0013651613 -0.0068631317 0.060000002
 endloop
endfacet
facet normal 0 0 1
 outer loop
  vertex 0.0013651613 -0.0068631317 0.060000002
  vertex 0.0020312928 -0.0066962745 0.060000002
  vertex 0.0026778614 -0.0064649284 0.060000002
 endloop
endfacet
facet normal 0 0 1
 outer loop
  vertex 0.0026778614 -0.0064649284 0.060000002
  vertex 0.0032986407 -0.0061713215 0.060000002
  vertex 0.0038876524 -0.005818282 0.060000002
 endloop
endfacet
facet normal 0 0 1
 outer loop
  vertex 0.0038876524 -0.005818282 0.060000002
  vertex 0.0044392236 -0.005409209 0.060000002
  vertex 0.0049480423 -0.0049480423 0.060000002
 endloop
endfacet
facet normal 0 0 1
 outer loop
  vertex 0.0049480423 -0.0049480423 0.060000002
  vertex 0.005409209 -0.0044392236 0.060000002
  vertex 0.005818282 -0.0038876524 0.060000002
 endloop
endfacet
facet normal 0 0 1
 outer loop
  vertex 0.005818282 -0.0038876524 0.060000002
  vertex 0.0061713215 -0.0032986407 0.060000002
  vertex 0.0064649284 -0.0026778614 0.060000002
 endloop
endfacet
facet normal 0 0 1
 outer loop
  vertex 0.0064649284 -0.0026778614 0.060000002
  vertex 0.0066962745 -0.0020312928 0.060000002
  vertex 0.006863132 -0.0013651613 0.060000002
 endloop
endfacet
facet normal 0 0 1
 outer loop
  vertex 0.006863132 -0.0013651613 0.060000002
  vertex 0.006963893 -0.00068588345 0.060000002
  vertex 0.006997588 0 0.060000002
 endloop
endfacet
facet normal 0 0 1
 outer loop
  vertex 0.006997588 0 0.060000002
  vertex 0.0069638933 0.00068588345 0.060000002
  vertex 0.0068631317 0.0013651613 0.060000002
 endloop
endfacet
facet normal 0 0 1
 outer loop
  vertex 0.0068631317 0.0013651613 0.060000002
  vertex 0.0066962745 0.0020312928 0.060000002
  vertex 0.0064649284 0.0026778614 0.060000002
 endloop
endfacet
facet normal 0 0 1
 outer loop
  vertex 0.0064649284 0.0026778614 0.060000002
  vertex 0.0061713215 0.0032986407 0.060000002
  vertex 0.005818282 0.0038876524 0.060000002
 endloop
endfacet
facet normal 0 0 1
 outer loop
  vertex 0.005818282 0.0038876524 0.060000002
  vertex 0.005409209 0.0044392236 0.060000002
  vertex 0.0049480423 0.0049480423 0.060000002
 endloop
endfacet
facet normal 0 0 1
 outer loop
  vertex 0.0049480423 0.0049480423 0.060000002
  vertex 0.0044392236 0.005409209 0.060000002
  vertex 0.0038876524 0.005818282 0.060000002
 endloop
endfacet
facet normal 0 0 1
 outer loop
  vertex 0.0038876524 0.005818282 0.060000002
  vertex 0.0032986407 0.0061713215 0.060000002
  vertex 0.0026778614 0.0064649284 0.060000002
 endloop
endfacet
facet normal 0 0 1
 outer loop
  vertex 0.0026778614 0.0064649284 0.060000002
  vertex 0.0020312928 0.0066962745 0.060000002
  vertex 0.0013651613 0.006863132 0.060000002
 endloop
endfacet
facet normal -0 0 1
 outer loop
  vertex 0.0013651613 0.006863132 0.060000002
  vertex 0 0.006997588 0.060000002
  vertex -0.0013651613 0.0068631317 0.060000002
 endloop
endfacet
facet normal 0 0 1
 outer loop
  vertex -0.0013651613 0.0068631317 0.060000002
  vertex -0.0026778614 0.0064649284 0.060000002
  vertex -0.0038876524 0.005818282 0.060000002
 endloop
endfacet
facet normal 0 0 1
 outer loop
  vertex -0.0038876524 0.005818282 0.060000002
  vertex -0.0049480423 0.0049480423 0.060000002
  vertex -0.005818282 0.0038876524 0.060000002
 endloop
endfacet
facet normal 0 0 1
 outer loop
  vertex -0.005818282 0.0038876524 0.060000002
  vertex -0.0064649284 0.0026778614 0.060000002
  vertex -0.006863132 0.0013651613 0.060000002
 endloop
endfacet
facet normal 0 -0 1
 outer loop
  vertex -0.006863132 0.0013651613 0.060000002
  vertex -0.006997588 0 0.060000002
  vertex -0.0068631317 -0.0013651613 0.060000002
 endloop
endfacet
facet normal 0 0 1
 outer loop
  vertex -0.0068631317 -0.0013651613 0.060000002
  vertex -0.0064649284 -0.0026778614 0.060000002
  vertex -0.005818282 -0.0038876524 0.060000002
 endloop
endfacet
facet normal 0 0 1
 outer loop
  vertex -0.005818282 -0.0038876524 0.060000002
  vertex -0.0049480423 -0.0049480423 0.060000002
  vertex -0.0038876524 -0.005818282 0.060000002
 endloop
endfacet
facet normal 0 0 1
 outer loop
  vertex -0.0038876524 -0.005818282 0.060000002
  vertex -0.0026778614 -0.0064649284 0.060000002
  vertex -0.0013651613 -0.006863132 0.060000002
 endloop
endfacet
facet normal 0 0 1
 outer loop
  vertex -0.0013651613 -0.006863132 0.060000002
  vertex 0 -0.006997588 0.060000002
  vertex 0.0013651613 -0.0068631317 0.060000002
 endloop
endfacet
facet normal 0 0 1
 outer loop
  vertex 0.0013651613 -0.0068631317 0.060000002
  vertex 0.0026778614 -0.0064649284 0.060000002
  vertex 0.0038876524 -0.005818282 0.060000002
 endloop
endfacet
facet normal 0 0 1
 outer loop
  vertex 0.0038876524 -0.005818282 0.060000002
  vertex 0.0049480423 -0.0049480423 0.060000002
  vertex 0.005818282 -0.0038876524 0.060000002
 endloop
endfacet
facet normal 0 0 1
 outer loop
  vertex 0.005818282 -0.0038876524 0.060000002
  vertex 0.0064649284 -0.0026778614 0.060000002
  vertex 0.006863132 -0.0013651613 0.060000002
 endloop
endfacet
facet normal 0 0 1
 outer loop
  vertex 0.006863132 -0.0013651613 0.060000002
  vertex 0.006997588 0 0.060000002
  vertex 0.0068631317 0.0013651613 0.060000002
 endloop
endfacet
facet normal 0 0 1
 outer loop
  vertex 0.0068631317 0.0013651613 0.060000002
  vertex 0.0064649284 0.0026778614 0.060000002
  vertex 0.005818282 0.0038876524 0.060000002
 endloop
endfacet
facet normal 0 0 1
 outer loop
  vertex 0.005818282 0.0038876524 0.060000002
  vertex 0.0049480423 0.0049480423 0.060000002
  vertex 0.0038876524 0.005818282 0.060000002
 endloop
endfacet
facet normal 0 0 1
 outer loop
  vertex 0.0038876524 0.005818282 0.060000002
  vertex 0.0026778614 0.0064649284 0.060000002
  vertex 0.0013651613 0.006863132 0.060000002
 endloop
endfacet
facet normal 0 0 1
 outer loop
  vertex 0.0013651613 0.006863132 0.060000002
  vertex -0.0013651613 0.0068631317 0.060000002
  vertex -0.0038876524 0.005818282 0.060000002
 endloop
endfacet
facet normal 0 0 1
 outer loop
  vertex -0.0038876524 0.005818282 0.060000002
  vertex -0.005818282 0.0038876524 0.060000002
  vertex -0.006863132 0.0013651613 0.060000002
 endloop
endfacet
facet normal 0 0 1
 outer loop
  vertex -0.006863132 0.0013651613 0.060000002
  vertex -0.0068631317 -0.0013651613 0.060000002
  vertex -0.005818282 -0.0038876524 0.060000002
 endloop
endfacet
facet normal 0 0 1
 outer loop
  vertex -0.005818282 -0.0038876524 0.060000002
  vertex -0.0038876524 -0.005818282 0.060000002
  vertex -0.0013651613 -0.006863132 0.060000002
 endloop
endfacet
facet normal 0 0 1
 outer loop
  vertex -0.0013651613 -0.006863132 0.060000002
  vertex 0.0013651613 -0.0068631317 0.060000002
  vertex 0.0038876524 -0.005818282 0.060000002
 endloop
endfacet
facet normal 0 0 1
 outer loop
  vertex 0.0038876524 -0.005818282 0.060000002
  vertex 0.005818282 -0.0038876524 0.060000002
  vertex 0.006863132 -0.0013651613 0.060000002
 endloop
endfacet
facet normal 0 0 1
 outer loop
  vertex 0.006863132 -0.0013651613 0.060000002
  vertex 0.0068631317 0.0013651613 0.060000002
  vertex 0.005818282 0.0038876524 0.060000002
 endloop
endfacet
facet normal 0 0 1
 outer loop
  vertex 0.005818282 0.0038876524 0.060000002
  vertex 0.0038876524 0.005818282 0.060000002
  vertex 0.0013651613 0.006863132 0.060000002
 endloop
endfacet
facet normal 0 0 1
 outer loop
  vertex 0.0013651613 0.006863132 0.060000002
  vertex -0.0038876524 0.005818282 0.060000002
  vertex -0.006863132 0.0013651613 0.060000002
 endloop
endfacet
facet normal 0 0 1
 outer loop
  vertex -0.006863132 0.0013651613 0.060000002
  vertex -0.005818282 -0.0038876524 0.060000002
  vertex -0.0013651613 -0.006863132 0.060000002
 endloop
endfacet
facet normal 0 0 1
 outer loop
  vertex -0.0013651613 -0.006863132 0.060000002
  vertex 0.0038876524 -0.005818282 0.060000002
  vertex 0.006863132 -0.0013651613 0.060000002
 endloop
endfacet
facet normal 0 0 1
 outer loop
  vertex 0.006863132 -0.0013651613 0.060000002
  vertex 0.005818282 0.0038876524 0.060000002
  vertex 0.0013651613 0.006863132 0.060000002
 endloop
endfacet
facet normal 0 -0 1
 outer loop
  vertex 0.0013651613 0.006863132 0.060000002
  vertex -0.006863132 0.0013651613 0.060000002
  vertex -0.0013651613 -0.006863132 0.060000002
 endloop
endfacet
facet normal 0 0 1
 outer loop
  vertex -0.0013651613 -0.006863132 0.060000002
  vertex 0.006863132 -0.0013651613 0.060000002
  vertex 0.0013651613 0.006863132 0.060000002
 endloop
endfacet
endsolid posTab
solid negTab
facet normal -0 0 -1
 outer loop
  vertex -0.00068588345 0.0069638933 0
  vertex 0 0.006997588 0
  vertex 0.00068588345 0.006963893 0
 endloop
endfacet
facet normal 0 0 -1
 outer loop
  vertex 0.00068588345 0.006963893 0
  vertex 0.0013651613 0.006863132 0
  vertex 0.0020312928 0.0066962745 0
 endloop
endfacet
facet normal 0 0 -1
 outer loop
  vertex 0.0020312928 0.0066962745 0
  vertex 0.0026778614 0.0064649284 0
  vertex 0.0032986407 0.0061713215 0
 endloop
endfacet
facet normal 0 0 -1
 outer loop
  vertex 0.0032986407 0.0061713215 0
  vertex 0.0038876524 0.005818282 0
  vertex 0.0044392236 0.005409209 0
 endloop
endfacet
facet normal 0 0 -1
 outer loop
  vertex 0.0044392236 0.005409209 0
  vertex 0.0049480423 0.0049480423 0
  vertex 0.005409209 0.0044392236 0
 endloop
endfacet
facet normal 0 0 -1
 outer loop
  vertex 0.005409209 0.0044392236 0
  vertex 0.005818282 0.0038876524 0
  vertex 0.0061713215 0.0032986407 0
 endloop
endfacet
facet normal 0 0 -1
 outer loop
  vertex 0.0061713215 0.0032986407 0
  vertex 0.0064649284 0.0026778614 0
  vertex 0.0066962745 0.0020312928 0
 endloop
endfacet
facet normal 0 0 -1
 outer loop
  vertex 0.0066962745 0.0020312928 0
  vertex 0.0068631317 0.0013651613 0
  vertex 0.0069638933 0.00068588345 0
 endloop
endfacet
facet normal 0 0 -1
 outer loop
  vertex 0.0069638933 0.00068588345 0
  vertex 0.006997588 0 0
  vertex 0.006963893 -0.00068588345 0
 endloop
endfacet
facet normal 0 0 -1
 outer loop
  vertex 0.006963893 -0.00068588345 0
  vertex 0.006863132 -0.0013651613 0
  vertex 0.0066962745 -0.0020312928 0
 endloop
endfacet
facet normal 0 0 -1
 outer loop
  vertex 0.0066962745 -0.0020312928 0
  vertex 0.0064649284 -0.0026778614 0
  vertex 0.0061713215 -0.0032986407 0
 endloop
endfacet
facet normal 0 0 -1
 outer loop
  vertex 0.0061713215 -0.0032986407 0
  vertex 0.005818282 -0.0038876524 0
  vertex 0.005409209 -0.0044392236 0
 endloop
endfacet
facet normal 0 0 -1
 outer loop
  vertex 0.005409209 -0.0044392236 0
  vertex 0.0049480423 -0.0049480423 0
  vertex 0.0044392236 -0.005409209 0
 endloop
endfacet
facet normal 0 0 -1
 outer loop
  vertex 0.0044392236 -0.005409209 0
  vertex 0.0038876524 -0.005818282 0
  vertex 0.0032986407 -0.0061713215 0
 endloop
endfacet
facet normal 0 0 -1
 outer loop
  vertex 0.0032986407 -0.0061713215 0
  vertex 0.0026778614 -0.0064649284 0
  vertex 0.0020312928 -0.0066962745 0
 endloop
endfacet
facet normal 0 0 -1
 outer loop
  vertex 0.0020312928 -0.0066962745 0
  vertex 0.0013651613 -0.0068631317 0
  vertex 0.00068588345 -0.0069638933 0
 endloop
endfacet
facet normal 0 0 -1
 outer loop
  vertex 0.00068588345 -0.0069638933 0
  vertex 0 -0.006997588 0
  vertex -0.00068588345 -0.006963893 0
 endloop
endfacet
facet normal 0 0 -1
 outer loop
  vertex -0.00068588345 -0.006963893 0
  vertex -0.0013651613 -0.006863132 0
  vertex -0.0020312928 -0.0066962745 0
 endloop
endfacet
facet normal 0 0 -1
 outer loop
  vertex -0.0020312928 -0.0066962745 0
  vertex -0.0026778614 -0.0064649284 0
  vertex -0.0032986407 -0.0061713215 0
 endloop
endfacet
facet normal 0 0 -1
 outer loop
  vertex -0.0032986407 -0.0061713215 0
  vertex -0.0038876524 -0.005818282 0
  vertex -0.0044392236 -0.005409209 0
 endloop
endfacet
facet normal 0 0 -1
 outer loop
  vertex -0.0044392236 -0.005409209 0
  vertex -0.0049480423 -0.0049480423 0
  vertex -0.005409209 -0.0044392236 0
 endloop
endfacet
facet normal 0 0 -1
 outer loop
  vertex -0.005409209 -0.0044392236 0
  vertex -0.005818282 -0.0038876524 0
  vertex -0.0061713215 -0.0032986407 0
 endloop
endfacet
facet normal 0 0 -1
 outer loop
  vertex -0.0061713215 -0.0032986407 0
  vertex -0.0064649284 -0.0026778614 0
  vertex -0.0066962745 -0.0020312928 0
 endloop
endfacet
facet normal 0 0 -1
 outer loop
  vertex -0.0066962745 -0.0020312928 0
  vertex -0.0068631317 -0.0013651613 0
  vertex -0.0069638933 -0.00068588345 0
 endloop
endfacet
facet normal 0 -0 -1
 outer loop
  vertex -0.0069638933 -0.00068588345 0
  vertex -0.006997588 0 0
  vertex -0.006963893 0.00068588345 0
 endloop
endfacet
facet normal 0 0 -1
 outer loop
  vertex -0.006963893 0.00068588345 0
  vertex -0.006863132 0.0013651613 0
  vertex -0.0066962745 0.0020312928 0
 endloop
endfacet
facet normal 0 0 -1
 outer loop
  vertex -0.0066962745 0.0020312928 0
  vertex -0.0064649284 0.0026778614 0
  vertex -0.0061713215 0.0032986407 0
 endloop
endfacet
facet normal 0 0 -1
 outer loop
  vertex -0.0061713215 0.0032986407 0
  vertex -0.005818282 0.0038876524 0
  vertex -0.005409209 0.0044392236 0
 endloop
endfacet
facet normal 0 0 -1
 outer loop
  vertex -0.005409209 0.0044392236 0
  vertex -0.0049480423 0.0049480423 0
  vertex -0.0044392236 0.005409209 0
 endloop
endfacet
facet normal 0 0 -1
 outer loop
  vertex -0.0044392236 0.005409209 0
  vertex -0.0038876524 0.005818282 0
  vertex -0.0032986407 0.0061713215 0
 endloop
endfacet
facet normal 0 0 -1
 outer loop
  vertex -0.0032986407 0.0061713215 0
  vertex -0.0026778614 0.0064649284 0
  vertex -0.0020312928 0.0066962745 0
 endloop
endfacet
facet normal 0 0 -1
 outer loop
  vertex -0.0020312928 0.0066962745 0
  vertex -0.0013651613 0.0068631317 0
  vertex -0.00068588345 0.0069638933 0
 endloop
endfacet
facet normal 0 0 -1
 outer loop
  vertex -0.00068588345 0.0069638933 0
  vertex 0.00068588345 0.006963893 0
  vertex 0.0020312928 0.0066962745 0
 endloop
endfacet
facet normal 0 0 -1
 outer loop
  vertex 0.0020312928 0.0066962745 0
  vertex 0.0032986407 0.0061713215 0
  vertex 0.0044392236 0.005409209 0
 endloop
endfacet
facet normal 0 0 -1
 outer loop
  vertex 0.0044392236 0.005409209 0
  vertex 0.005409209 0.0044392236 0
  vertex 0.0061713215 0.0032986407 0
 endloop
endfacet
facet normal 0 0 -1
 outer loop
  vertex 0.0061713215 0.0032986407 0
  vertex 0.0066962745 0.0020312928 0
  vertex 0.0069638933 0.00068588345 0
 endloop
endfacet
facet normal 0 0 -1
 outer loop
  vertex 0.0069638933 0.00068588345 0
  vertex 0.006963893 -0.00068588345 0
  vertex 0.0066962745 -0.0020312928 0
 endloop
endfacet
facet normal 0 0 -1
 outer loop
  vertex 0.0066962745 -0.0020312928 0
  vertex 0.0061713215 -0.0032986407 0
  vertex 0.005409209 -0.0044392236 0
 endloop
endfacet
facet normal 0 0 -1
 outer loop
  vertex 0.005409209 -0.0044392236 0
  vertex 0.0044392236 -0.005409209 0
  vertex 0.0032986407 -0.0061713215 0
 endloop
endfacet
facet normal 0 0 -1
 outer loop
  vertex 0.0032986407 -0.0061713215 0
  vertex 0.0020312928 -0.0066962745 0
  vertex 0.00068588345 -0.0069638933 0
 endloop
endfacet
facet normal 0 0 -1
 outer loop
  vertex 0.00068588345 -0.0069638933 0
  vertex -0.00068588345 -0.006963893 0
  vertex -0.0020312928 -0.0066962745 0
 endloop
endfacet
facet normal 0 0 -1
 outer loop
  vertex -0.0020312928 -0.0066962745 0
  vertex -0.0032986407 -0.0061713215 0
  vertex -0.0044392236 -0.005409209 0
 endloop
endfacet
facet normal 0 0 -1
 outer loop
  vertex -0.0044392236 -0.005409209 0
  vertex -0.005409209 -0.0044392236 0
  vertex -0.0061713215 -0.0032986407 0
 endloop
endfacet
facet normal 0 0 -1
 outer loop
  vertex -0.0061713215 -0.0032986407 0
  vertex -0.0066962745 -0.0020312928 0
  vertex -0.0069638933 -0.00068588345 0
 endloop
endfacet
facet normal 0 0 -1
 outer loop
  vertex -0.0069638933 -0.00068588345 0
  vertex -0.006963893 0.00068588345 0
  vertex -0.0066962745 0.0020312928 0
 endloop
endfacet
facet normal 0 0 -1
 outer loop
  vertex -0.0066962745 0.0020312928 0
  vertex -0.0061713215 0.0032986407 0
  vertex -0.005409209 0.0044392236 0
 endloop
endfacet
facet normal 0 0 -1
 outer loop
  vertex -0.005409209 0.0044392236 0
  vertex -0.0044392236 0.005409209 0
  vertex -0.0032986407 0.0061713215 0
 endloop
endfacet
facet normal 0 0 -1
 outer loop
  vertex -0.0032986407 0.0061713215 0
  vertex -0.0020312928 0.0066962745 0
  vertex -0.00068588345 0.0069638933 0
 endloop
endfacet
facet normal 0 0 -1
 outer loop
  vertex -0.00068588345 0.0069638933 0
  vertex 0.0020312928 0.0066962745 0
  vertex 0.0044392236 0.005409209 0
 endloop
endfacet
facet normal 0 0 -1
 outer loop
  vertex 0.0044392236 0.005409209 0
  vertex 0.0061713215 0.0032986407 0
  vertex 0.0069638933 0.00068588345 0
 endloop
endfacet
facet normal 0 0 -1
 outer loop
  vertex 0.0069638933 0.00068588345 0
  vertex 0.0066962745 -0.0020312928 0
  vertex 0.005409209 -0.0044392236 0
 endloop
endfacet
facet normal 0 0 -1
 outer loop
  vertex 0.005409209 -0.0044392236 0
  vertex 0.0032986407 -0.0061713215 0
  vertex 0.00068588345 -0.0069638933 0
 endloop
endfacet
facet normal 0 0 -1
 outer loop
  vertex 0.00068588345 -0.0069638933 0
  vertex -0.0020312928 -0.0066962745 0
  vertex -0.0044392236 -0.005409209 0
 endloop
endfacet
facet normal 0 0 -1
 outer loop
  vertex -0.0044392236 -0.005409209 0
  vertex -0.0061713215 -0.0032986407 0
  vertex -0.0069638933 -0.00068588345 0
 endloop
endfacet
facet normal 0 0 -1
 outer loop
  vertex -0.0069638933 -0.00068588345 0
  vertex -0.0066962745 0.0020312928 0
  vertex -0.005409209 0.0044392236 0
 endloop
endfacet
facet normal 0 0 -1
 outer loop
  vertex -0.005409209 0.0044392236 0
  vertex -0.0032986407 0.0061713215 0
  vertex -0.00068588345 0.0069638933 0
 endloop
endfacet
facet normal 0 0 -1
 outer loop
  vertex -0.00068588345 0.0069638933 0
  vertex 0.0044392236 0.005409209 0
  vertex 0.0069638933 0.00068588345 0
 endloop
endfacet
facet normal 0 0 -1
 outer loop
  vertex 0.0069638933 0.00068588345 0
  vertex 0.005409209 -0.0044392236 0
  vertex 0.00068588345 -0.0069638933 0
 endloop
endfacet
facet normal 0 0 -1
 outer loop
  vertex 0.00068588345 -0.0069638933 0
  vertex -0.0044392236 -0.005409209 0
  vertex -0.0069638933 -0.00068588345 0
 endloop
endfacet
facet normal 0 0 -1
 outer loop
  vertex -0.0069638933 -0.00068588345 0
  vertex -0.005409209 0.0044392236 0
  vertex -0.00068588345 0.0069638933 0
 endloop
endfacet
facet normal 0 0 -1
 outer loop
  vertex -0.00068588345 0.0069638933 0
  vertex 0.0069638933 0.00068588345 0
  vertex 0.00068588345 -0.0069638933 0
 endloop
endfacet
facet normal 0 -0 -1
 outer loop
  vertex 0.00068588345 -0.0069638933 0
  vertex -0.0069638933 -0.00068588345 0
  vertex -0.00068588345 0.0069638933 0
 endloop
endfacet
endsolid negTab
